<svg xmlns="http://www.w3.org/2000/svg" xmlns:xlink="http://www.w3.org/1999/xlink" width="363.572" height="231.962" viewBox="0 0 363.572 231.962">
  <defs>
    <clipPath id="clip-path">
      <rect id="Rectangle_242" data-name="Rectangle 242" width="231.962" height="363.571" transform="translate(141)" fill="none" stroke="#be894a" stroke-width="1"/>
    </clipPath>
  </defs>
  <g id="Mask_Group_25" data-name="Mask Group 25" transform="translate(363.572 -141) rotate(90)" clip-path="url(#clip-path)">
    <g id="Group_3534" data-name="Group 3534" transform="translate(372.998 19.802) rotate(90)" opacity="0.3">
      <path id="Path_3148" data-name="Path 3148" d="M.081,0,.67.243.588.438,0,.2Z" transform="translate(186.615 19.518)" fill="none" stroke="#be894a" stroke-width="1" fill-rule="evenodd"/>
      <path id="Path_3149" data-name="Path 3149" d="M0,0" transform="translate(274.883 21.388)" fill="none" stroke="#be894a" stroke-width="1" fill-rule="evenodd"/>
      <path id="Path_3150" data-name="Path 3150" d="M32.248,6.382c5.472.693,3.488,5.927,1.346,9.206-2.629,4.026-3.443,7.991-4.565,12.836-.431,1.865-.727,4.029-1.722,5.651-3.914-1.314-3.96.434-5.089,3.21-1.054,2.594-3.795,3.315-4.653,5.975-.453,1.407-.081,2.841-.165,4.259C9.391,47.236-.565,41.11.025,32.223c.286-4.318,1.87-8.288,2.027-12.724C2.234,14.458,3.458,10.374,7.1,6.706,10.454,3.337,14.965,2.188,19.049,0" transform="translate(114.957 84.168)" fill="none" stroke="#be894a" stroke-miterlimit="10" stroke-width="1.185"/>
      <path id="Path_3151" data-name="Path 3151" d="M20.231,32.219c2.5,1.694,2.886-1.4,3.875-2.929,1.542-2.4,3.335-2.38,5.336-4.094,2.545-2.185,1.079-3.232,1.13-5.987.049-2.5,1.546-4.415,1.464-7.009-.021-.664-.077-3.333-.877-3.65-.917-.359-1.359,1.481-2.08,1.384-1.693-.227-2.46-1.885-3.827-3.234-.526-.52-1.361-.072-1.94-.848-.623-.837-.155-2.587-.679-3.587S21.186-.147,19.858.012c-1.157.137-1.049,1.7-1.77,1.9-1.05.294-1.889-.566-2.74-.4-1.635.326-.863.518-2.186,1.229-1.537.824-.464,1.437-2.7,1.247-1.1-.09-2.43-1.259-3.571-1.565C6.91,7.1,3.09,3.459.99,5.91c-1.884,2.2-.637,6.775.128,9.209,1.578,5.041,6.375,12.3,11.152,14.739,2.432,1.245,5.834,2.588,8.6,2.534" transform="translate(125.38 57.436)" fill="none" stroke="#be894a" stroke-miterlimit="10" stroke-width="1.185"/>
      <path id="Path_3152" data-name="Path 3152" d="M0,6.809c1.9,1.843,3.151,6.256,5.885,6.884,1.942.45,2.618-1.072,4.181-1.637,1.779-.643,1.859-.221,3.629-.116,8.889.516-1.829-8.643-4.648-10.763C6.339-.859,3.6.077.769,1.5" transform="translate(150.091 91.666)" fill="none" stroke="#be894a" stroke-miterlimit="10" stroke-width="1.185"/>
      <path id="Path_3153" data-name="Path 3153" d="M.058,0C.128.095.107.168,0,.216" transform="translate(155.799 105.117)" fill="none" stroke="#be894a" stroke-miterlimit="10" stroke-width="1.185"/>
      <path id="Path_3154" data-name="Path 3154" d="M13.171,0c1.073,4.369,3.9,8.278,5.176,12.692,1.164,4.035,1.3,8.634,1.678,12.8.193,2.1.361,4.722-2.46,3.073-.725,4.178-1.184,5.32-3.772,8.481-1.159,1.416-3.751,5.563-6.4,4.539-1.638-.633-1.3-3.544-1.908-4.86-.652-1.4-1.955-2.272-2.388-3.8-.5-1.763.5-3.459.2-5.206-.32-1.876-1.87-3.395-2.376-5.237C.1,19.463.122,15.523,0,12.371" transform="translate(142.687 105.117)" fill="none" stroke="#be894a" stroke-miterlimit="10" stroke-width="1.185"/>
      <path id="Path_3155" data-name="Path 3155" d="M0,0C7.353.947,15.147,1.063,22.606,1.829a24.656,24.656,0,0,1,5.152.962" transform="translate(171.801 99.834)" fill="none" stroke="#be894a" stroke-miterlimit="10" stroke-width="1.185"/>
      <path id="Path_3156" data-name="Path 3156" d="M14.648,0c5.129,4.915,7.691,8.827,14.576,11.635,4.577,1.868,9.459,6.563,6.3,11.888-1.458,2.456-3.113,3.653-4.064,6.544-1.087,3.3-1.922,4.662-4.821,6.69C21.786,40.152,17.817,43.709,12,45.3,5.018,47.2,3.032,41.812.742,36.291Q.372,35.4,0,34.5" transform="translate(154.996 109.365)" fill="none" stroke="#be894a" stroke-miterlimit="10" stroke-width="1.185"/>
      <path id="Path_3157" data-name="Path 3157" d="M9.039.153c1.532.168,4.474-.713,5.626.5.744.782,1,6.266.979,7.429-.072,3.349-.7,2.033-3.45,2.581-2.515.5-3.431,1.414-6.12.466C3.637,10.269,2.131,8.429,0,7.1" transform="translate(156.791 98.387)" fill="none" stroke="#be894a" stroke-miterlimit="10" stroke-width="1.185"/>
      <path id="Path_3158" data-name="Path 3158" d="M0,0C3.076,1.008,6.091,2.5,9.266,3.192c2.827.619,5.65.514,8.083,2.326a10.485,10.485,0,0,1,2.9,3.683c3.436.019,2.72,3.03,3.489,4.913.974,2.384,2.818,4.646,3.824,7.17,1.388,3.489,2.454,2.853,5.078,4.737,2.386,1.712,2.363,4.1,5.375,5.093,1.868.617,5.216,1.782,7.064,1.86.358-1.258,1.562-3.428,3.182-3.159,2.088.35,1.793,3.48,1.94,5.023.313,3.283,1.485,9.413-3.984,7.657-3.053-.98-5.169-4.916-7.913-6.61-2.962-1.827-6.265-3.14-9.284-4.924-3.2-1.888-6.646-4.5-10.225-5.56" transform="translate(172.471 105.768)" fill="none" stroke="#be894a" stroke-miterlimit="10" stroke-width="1.185"/>
      <path id="Path_3159" data-name="Path 3159" d="M0,0C3.852.962,6.23,3.4,9.663,5.44a42.9,42.9,0,0,1,9.19,7.087A17.065,17.065,0,0,1,22.6,17.819" transform="translate(190.384 133.115)" fill="none" stroke="#be894a" stroke-miterlimit="10" stroke-width="1.185"/>
      <path id="Path_3160" data-name="Path 3160" d="M0,0C2.837,2.2,4.957,6.258,7.911,7.841c3.013,1.613,6.413,2.526,9.448,4.244,6.322,3.587,11.091,9.713,15.7,15.04,1.309,1.514,2.093,3.451,3.845,4.472,1.4.813,3.242.877,4.589,1.775" transform="translate(189.457 134.227)" fill="none" stroke="#be894a" stroke-miterlimit="10" stroke-width="1.185"/>
      <path id="Path_3161" data-name="Path 3161" d="M11.69,0A73.242,73.242,0,0,1,26.045,8.009c2.419,1.687,4.336,1.5,7.131,2.079,2.773.578,4.235,2.041,6.534,3.356,4.2,2.4,8.415,2.33,12.481,5.581a56.446,56.446,0,0,0,10.928,6.627c4.3,2.131,10.011,6.418,8.044,12.136-3.525-.624-3.724.83-5.69,2.941-3.211,3.449-3.641-1.091-7.347-.239-2.056.473-2.2,3.41-4.55,4.27-1.984.723-4.826.645-6.914.651a55.417,55.417,0,0,1-19.823-3.641c-6.372-2.362-10.062-5.747-14.6-10.688C8.7,27.229,5.406,22.538,1.3,19.316c-.423-.329-.859-.649-1.3-.957" transform="translate(185.722 122.102)" fill="none" stroke="#be894a" stroke-miterlimit="10" stroke-width="1.185"/>
      <path id="Path_3162" data-name="Path 3162" d="M0,0C2.533,2.77,5.648,4.636,8.421,7.113c3.137,2.8,4.286,6.377,6.612,9.721,2.214,3.192,5.867,4.612,8.3,7.554,2.779,3.369,2.9,7.572,3.61,11.679.661,3.837,6.679,21.151-2.792,15.668-2.6-1.507-4.658-4.912-6.385-1.421-1.1,2.238.637,7.1-2.951,7.673C8.126,59.062,5.241,41.6,2.177,37.841A21.085,21.085,0,0,0,.466,36.01" transform="translate(185.017 143.028)" fill="none" stroke="#be894a" stroke-miterlimit="10" stroke-width="1.185"/>
      <path id="Path_3163" data-name="Path 3163" d="M19.786,0c4.161,2.784,3.382,7.406,4.327,11.775.443,2.044,2.466,15.379-1.412,14.7-1.505-.262-3.69-5.06-5.392-6.1-.8,3.237.937,7.943-3.972,7.859-1.33,3.142,9.371,4.148,4.856,8.124-1.185,1.043-4.207-.108-5.612-.413-3.465-.744-4.047.6-7.2,1.016C3.068,37.272,1.7,35.677,0,34.362" transform="translate(201.049 166.318)" fill="none" stroke="#be894a" stroke-miterlimit="10" stroke-width="1.185"/>
      <path id="Path_3164" data-name="Path 3164" d="M14.6,0a31.777,31.777,0,0,0,3.048,14.872c2.91,5.45,5.952,5.933,2.439,12.31a77.04,77.04,0,0,0-4.809,11.58c-1.624,4.55-5.19,3.963-6.924,8.345-1.023,2.582-1.113,4.327-3.968,3.78A10.3,10.3,0,0,1,0,47.906" transform="translate(169.06 144.452)" fill="none" stroke="#be894a" stroke-miterlimit="10" stroke-width="1.185"/>
      <path id="Path_3165" data-name="Path 3165" d="M10.962,0c-.852,4.472,3.366,7.711,3.647,11.94.234,3.515-.419,9.139-2.737,11.919-1.3,1.561-7.631,5.009-7.094,1.123.221-1.6,3.164-2.32,3.246-4.255.088-2.06-1.81-2.549-3.143-3.638C1.5,14.332.7,10.533,0,6.316" transform="translate(167.177 148.491)" fill="none" stroke="#be894a" stroke-miterlimit="10" stroke-width="1.185"/>
      <path id="Path_3166" data-name="Path 3166" d="M3.017,0c2.722,2.1,3.932,2.973,2.01,6.393-1.053,1.873-2.255,6.455-3.793,7.535C-.376,12.482,0,4.2.133,2.2" transform="translate(176.133 172.044)" fill="none" stroke="#be894a" stroke-miterlimit="10" stroke-width="1.185"/>
      <path id="Path_3167" data-name="Path 3167" d="M20.3,0c-3.612,3.989-4.5,8.94-4.337,14.241.18,5.829,1.314,9.95-.375,15.593-1.959,6.54,4.355,8.43,8.844,11.224,6.668,4.147,2.018,10.606-.037,15.949a74.54,74.54,0,0,0-3.377,9.283c-.471,1.949-.689,7.226-2.086,8.639a3.137,3.137,0,0,1-1.553,1.064c-2.049-1.115-2.061-4.443-3.829-5.25-2.188-1-3.046,2.2-4.767.911-.8-.6-.072-2.843-1.194-3.413-1.256-.639-1.721.832-2.821.915-3.156.235-3.009-1.1-3.575-4.163-.361-1.969-1.6-4.92-1.06-6.869.651-2.34,3.542-3.786,4.674-5.979C7.149,47.6,3.943,43.37,6.556,38.871c1.51-2.6,2.608-4.017,2.027-7.182-.455-2.477-1.469-5.326-1.317-7.943" transform="translate(124.482 130.372)" fill="none" stroke="#be894a" stroke-miterlimit="10" stroke-width="1.185"/>
      <path id="Path_3168" data-name="Path 3168" d="M0,0A80.306,80.306,0,0,0,6.317,18.7c2.519,5.509,5.066,11.661,5.319,17.794C11.912,43.2,7.955,47.078,4.4,52.2,1.367,56.574,1.126,61.375.837,66.562.694,69.107-.568,81.132,4.144,79.36c2-.753,3.633-5.156,4.837-6.78a18.227,18.227,0,0,1,6.352-5.452c5.511-2.954,7.287-5.412,7.795-11.863.391-4.969,1.085-10.395.314-15.347a25.479,25.479,0,0,0-6.818-13.453c-3.85-4.218-7.559-8.161-9.29-13.754-.362-1.171-.626-2.378-.87-3.577" transform="translate(145.727 137.417)" fill="none" stroke="#be894a" stroke-miterlimit="10" stroke-width="1.185"/>
      <path id="Path_3169" data-name="Path 3169" d="M58.68,0c-3.42,3.465-5.191,10.284-6.746,14.834-1.38,4.039-3.489,7.265-5.444,10.906-1.214,2.26-1.646,2.565-3.926,3.693a23.568,23.568,0,0,0-5.431,3.836,12.743,12.743,0,0,1-5.441,2.9c-2.658.863-2.751,1.7-4.868,3.644-2.049,1.878-4.3,2.27-6.767,3.125-4.074,1.413-7.892,3.834-11.934,5.478C6.378,45.963-3.3,48.3,1.164,43.291,2.488,41.807,4.8,40.831,6.29,39.318A74.473,74.473,0,0,1,12.9,33.792c2.159-1.744,3.878-4,6.384-5.278,2.538-1.3,5.41-1.759,7.971-3.089,4.873-2.529,9.511-5.075,12.681-9.667,2.9-4.194,7.183-6.764,6.949-12.237" transform="translate(85.349 128.096)" fill="none" stroke="#be894a" stroke-miterlimit="10" stroke-width="1.185"/>
      <path id="Path_3170" data-name="Path 3170" d="M29.016,0c-2.31,4.911.727,9.6-.236,14.489-.9,4.6-5.126,9.532-7.248,13.722-4.36,8.617-4.35-4.632-8.566-3.922-2.793.47-2.254,3.931-5.278,3.716C6.658,27.933,6.372,26.423,5,26.736c-1.233.285-1.319,2.328-2.324,2.7-4.888,1.828-1.634-10.971-1.435-13.431" transform="translate(100.102 156.956)" fill="none" stroke="#be894a" stroke-miterlimit="10" stroke-width="1.185"/>
      <path id="Path_3171" data-name="Path 3171" d="M29.59,6.384c-5.428-.515-8.981-2.755-13.69-5.349C9.464-2.516,11.211,4.146,5.7,4.943c-2.614.375-4.3.046-5.7,2.976a.957.957,0,0,1,.052.347c6.4-1.548,14.052-2.543,20.564-.147,1.523.563,2.552,1.386,4,1.844" transform="translate(96.407 62.129)" fill="none" stroke="#be894a" stroke-miterlimit="10" stroke-width="1.185"/>
      <path id="Path_3172" data-name="Path 3172" d="M16.784,9.786C14.674,10.37,9.393,6.48,7.429,5,5.2,3.327,2.265-.016,0,0" transform="translate(108.573 57.284)" fill="none" stroke="#be894a" stroke-miterlimit="10" stroke-width="1.185"/>
      <path id="Path_3173" data-name="Path 3173" d="M29.267,3.289c-4.616.037-7.534-4.531-12.276-2.96C11.42,2.178,8.093,1,2.43.713-4.318.369,4.919,4.35,6.91,5.634A111.168,111.168,0,0,0,19.566,12.84c5.054,2.4,10.7,1.175,15.592,3.688" transform="translate(78.045 59.627)" fill="none" stroke="#be894a" stroke-miterlimit="10" stroke-width="1.185"/>
      <path id="Path_3174" data-name="Path 3174" d="M22.468.04C18.7-.181,13.8.461,10.978,3.058,9.4,4.5,8.536,6.239,6.621,7.4,5.135,8.3,1.02,8.835.21,10.413c-1.467,2.864,5.154,6.173,7.139,7.447,1.177.752,2.992,3.85,4.144,4.04,2.153.357,3.136-3.156,4.3-4.392,3.169-3.372,7.232-6.038,10.474-9.524" transform="translate(104.126 71.741)" fill="none" stroke="#be894a" stroke-miterlimit="10" stroke-width="1.185"/>
      <path id="Path_3175" data-name="Path 3175" d="M23.729.048c-5.065-.794-5.9,8.419-8.792,10.725-2.08,1.657-4.806,1.417-7.138,2.241-2.533.9-2.894,2.491-4.739,4.275C1.084,19.2-1.43,20.048,1,23.409c1.412,1.952,4.686,1.645,4.694,4.337,0,2-4.763,4.7-1.922,6.582,1.667,1.108,5.61-1.8,7.878-1.342.982.2,4.511,1.389,4.683,2.649.193,1.4-1.815,1.734-2.6,2.593-2.675,2.932-.595,4.531,2.8,3.024,2.845,2.9,1.222,4.167,5.957,3.048,3.2-.758,4.17-2.356,6.644-4.513a15.011,15.011,0,0,1,3.427-2.449" transform="translate(87.356 89.318)" fill="none" stroke="#be894a" stroke-miterlimit="10" stroke-width="1.185"/>
      <path id="Path_3176" data-name="Path 3176" d="M13.915,0C12.23,2,10.048,3.368,8.471,5.709,7.383,7.322,6.754,9.083,5.336,10.425,3.575,12.092,2.1,12.031,1.28,14.732a39.15,39.15,0,0,0-.921,5.519c-.234,1.67.47,4.531-.359,5.718" transform="translate(108.81 129.032)" fill="none" stroke="#be894a" stroke-miterlimit="10" stroke-width="1.185"/>
      <path id="Path_3177" data-name="Path 3177" d="M36.79,2.517C31.344-1.447,28.314-.3,23.045,3,18.409,5.9,12.7,5.052,7.481,6.12c-3.691.753-10.99,1.369-5.51,6.442,3.851,3.567,11.963,3.185,16.776,1.974,5.6-1.4,8.142-8.668,14.435-7.261" transform="translate(72.772 86.902)" fill="none" stroke="#be894a" stroke-miterlimit="10" stroke-width="1.185"/>
      <path id="Path_3178" data-name="Path 3178" d="M40.9.961C34.107,3.9,30.065,1.079,23.425.1c-3.395-.5-6.071,1.117-9.266,1.472-3.876.431-5.752.109-8.5,2.922-.631.647-.535,1.42-1.422,1.981-.842.531-2.19-.146-3.016.439-1.6,1.132-1.794,2.893.476,3.515-3.875,3.961,2.495,5.5,5.191,5.927" transform="translate(71.211 77.081)" fill="none" stroke="#be894a" stroke-miterlimit="10" stroke-width="1.185"/>
      <path id="Path_3179" data-name="Path 3179" d="M22.612,1.49a6.727,6.727,0,0,0-3.521-.8c-1.723-.013-2.567,1.223-3.762,1.338C13.9,2.162,8.013-1.2,7.5.466,7.243,1.307,9.953,3.23,10.428,3.9,9.176,5.725,6.679,5.224,5.035,6.094c-.59.314-.735,1.209-1.82,1.75C2.261,8.321.984,8.089,0,8.632c1.135,3.727,6.718,6.31,9.495,4.679" transform="translate(68.194 67.358)" fill="none" stroke="#be894a" stroke-miterlimit="10" stroke-width="1.185"/>
      <path id="Path_3180" data-name="Path 3180" d="M19.615,0c-2.375,1.977-5.886.4-8.577.174A17.23,17.23,0,0,0,3.2,1.264C1.641,1.928.654,2.333,0,3.933c1.566.782,3.878.307,5.516.119.175,1.8-1.1,2.833-1.928,4.2C6.077,11.411,10.4,6.07,12.188,10c.793,1.744-1.722,2.4.907,2.733,1.294.161,3.534-1.917,5-2.019,1.529-.106,3.4.854,3.933.178" transform="translate(52.457 88.559)" fill="none" stroke="#be894a" stroke-miterlimit="10" stroke-width="1.185"/>
      <path id="Path_3181" data-name="Path 3181" d="M30.467,5.993c-2.459,1.491-5.927-1.642-8.412-2.367C19.527,2.888,15.444.088,13.077,0c-1.8-.066-2.58,1.52-4.112,2.19-1.556.684-3.14.407-4.739.847-4.1,1.124-6.012,4.2-2.062,6.97,1.988,1.4,9.021,5.12,2.287,6.669.814,6.586,6.733-.047,10.137,1.1.225,1.759,2.431,1.726,3.267,1.891" transform="translate(78.487 143.872)" fill="none" stroke="#be894a" stroke-miterlimit="10" stroke-width="1.185"/>
      <path id="Path_3182" data-name="Path 3182" d="M8.9.254C6.767-.238,2.088-.09,0,1.376,1.949,4.152,6.817,4.25,7.845,6.957c.75,1.973-1.736,8.023,3.311,5.187" transform="translate(74.509 161.807)" fill="none" stroke="#be894a" stroke-miterlimit="10" stroke-width="1.185"/>
      <path id="Path_3183" data-name="Path 3183" d="M15.2,0c-1.449,1.5-2.037,3.615-3.4,5.157C10.268,6.884,8.079,7.549,6.435,9.194c-2.11,2.107-1.2,3.578-2.274,5.9C3.4,16.737-.3,18.12.02,20.025c.43,2.57,5.859,1.953,7.115,4.211-1.811,1.891-5,1.962-6.415,4.2-1.75,2.761.278,4.026,3.047,4.451,3.665.563,3.368-1.787,6.126-3.432,2.034-1.21,4.077-1.471,6.212-3.11,1.95-1.5,3.467-3.361,5.38-4.831" transform="translate(72.3 102.338)" fill="none" stroke="#be894a" stroke-miterlimit="10" stroke-width="1.185"/>
      <path id="Path_3184" data-name="Path 3184" d="M13.948,4.511C12.04,5.945,10.192,8.086,7.955,8.982c-2.031.812-4.777-.546-6.492.349C-3.46,11.9,5.456,14.7,7.44,15.288c3.1.923,9.543,1.39,12.746.587,4.288-1.075,4.3-6.642,8.2-8.41,2.28-1.034,4.5-.506,6.413-2.318C36.469,3.567,36.9,1.3,38.994,0" transform="translate(62.483 131.02)" fill="none" stroke="#be894a" stroke-miterlimit="10" stroke-width="1.185"/>
      <path id="Path_3185" data-name="Path 3185" d="M17.247,0c-1.435.309-2.939,1.059-4.373,1.439-.02.076-.043.155-.063.231a17.6,17.6,0,0,0,1.7,1.161c-2.352.892-3.786,2.923-6.015,4.146C5.406,8.666,3.8,8.026.5,7.352-.852,9.223.874,9.46,1.817,10.612c.421.512,1.5.406,1.884,1.051s-.736,1.192-.475,1.8a6.858,6.858,0,0,0,5.06,4.094" transform="translate(55.195 122.82)" fill="none" stroke="#be894a" stroke-miterlimit="10" stroke-width="1.185"/>
      <path id="Path_3186" data-name="Path 3186" d="M13.279,0c-.86.049-2.45,1.687-2.947,2.768-1,2.192-.034,2.316-1.948,4.156C6.837,8.406,6.441,8.7,6.023,10.631c-.428,1.972.709,2.786-1.291,4.188-1.309.92-3.424.548-4.731,1.441.414.148.937.749,1.541.89-4.1,3.564,10.205,3.836,11.524,4.1,1.113.216,2.481,1.02,3.309,1" transform="translate(51.845 101.718)" fill="none" stroke="#be894a" stroke-miterlimit="10" stroke-width="1.185"/>
      <path id="Path_3187" data-name="Path 3187" d="M16.5,0c-.855,1.122-3.011,2.113-4.311,2.675-1.829.79-3.349,1.722-4.776,2.46C4.643,6.572.96,9.071.163,12.353c-.722,2.977,1.046,3.3,3.627,3-1.85,3.873,6.2,4.385,7.874,4.365" transform="translate(40.828 97.853)" fill="none" stroke="#be894a" stroke-miterlimit="10" stroke-width="1.185"/>
      <path id="Path_3188" data-name="Path 3188" d="M131.5,40.988c-2.7-2.339-9.08-3.21-12.583-3.653-4.039-.509-7.672,1.889-11.8,1.247-2.328-.361-3.765-1.01-6.122-.421-2.155.542-3.345,1.424-5.678,1.214-4.463-.4-9.037-.672-13.528-1.126a69.626,69.626,0,0,0-12.861-.267c-4.889.385-9.8-.969-14.521-.353a28.72,28.72,0,0,1-16.73-3.093c-5.146-2.532-9.328-6.325-15.075-7.625-5.052-1.143-6.655-2.316-9.778-6.506-2.912-3.906-7.234-5.368-10.678-8.6A23.336,23.336,0,0,1,0,9.411C3.384,8.385,5.915,6.088,9.172,4.933c4.161-1.471,8.974-1.086,13.318-1.595C33.681,2.025,45.01,1.561,56.247.468,63.222-.208,69.515-.572,75.981,2.427a69.2,69.2,0,0,1,14.107,8.785c6.857,5.46,15.2,9.342,22.847,13.608,6.7,3.737,12.282,9.163,18.33,13.847.525.406,1.049.815,1.576,1.22" transform="translate(12.456 17.822)" fill="none" stroke="#be894a" stroke-miterlimit="10" stroke-width="1.185"/>
      <path id="Path_3189" data-name="Path 3189" d="M55.689,46.736c-7.261-3.074-13.2-8.972-21.229-9.92-3.519-.418-6.77-.391-10.052-1.935-3.2-1.5-6.046-3.762-9.167-5.437C9.607,26.424,1.973,22.887.228,15.984-1.436,9.414,6.387,5.1,11.682,3.714,17.05,2.308,22.9,1.1,28.385.225c.531-.084,1.068-.158,1.6-.225" transform="translate(0 42.844)" fill="none" stroke="#be894a" stroke-miterlimit="10" stroke-width="1.185"/>
      <path id="Path_3190" data-name="Path 3190" d="M12.945,24.478c3.035-3.924,1.521-8.768,5.278-12.58,1.256-1.276,10.892-8.792,7.56-11.216C24.012-.607,22.322,3.695,20.67,3.826c-1.207.094-3.3-1.708-4.518-2.2C10.833-.52,8.435-1.432,6.837,4.652c-.817,3.1-2.616,3.8-4.417,6.259C.979,12.879.7,15.3,0,17.588" transform="translate(156.465 74.011)" fill="none" stroke="#be894a" stroke-miterlimit="10" stroke-width="1.185"/>
      <path id="Path_3191" data-name="Path 3191" d="M15,33.619a22.24,22.24,0,0,1,3.808-14.255c2.784-4.316,5.357-6.376,1.861-10.6-1.689-2.037-1.341-2.335-1.8-5.227-.614-3.849-.475-2.078-2.937-1.76-.992.128-1.009.888-2.184.561-.9-.25-1.1-1.986-1.942-2.224C9.08-.652,9.663,2.6,7.9,4.067c-1.917,1.6-3.238-.179-5.087.98-1.54.967-1.735,4.216-2.816,5.7" transform="translate(147.162 47.697)" fill="none" stroke="#be894a" stroke-miterlimit="10" stroke-width="1.185"/>
      <path id="Path_3192" data-name="Path 3192" d="M15.719,2.289c-1.683-4.567-4.616-.873-7.483-.846C7.684,1.446,7.542-.1,6.794,0,5.723.153,5.831.733,5.067,1.087,3.7,1.719,3.647,4.079,1.715,2.167-.257,3.015-.11,4.91.148,6.643" transform="translate(140.524 47.38)" fill="none" stroke="#be894a" stroke-miterlimit="10" stroke-width="1.185"/>
      <path id="Path_3193" data-name="Path 3193" d="M.775,23.244c2.845-2.781,8.375-3.193,12.1-4.274,2.291-.663,4.686-.765,6.636-2.324,2.64-2.106,1.88-3.076,1.457-5.583-.3-1.764.44-3.178.282-4.944-.243-2.724-1.152-1.562-3.276-2.748C16.5,2.542,15.312-.02,13.566,0c-1.677.021-2.9,2.613-4.587,3.055-2.5.656-3.753-.834-5.889,1.611C1.7,6.251,1.4,8.524,0,10.148" transform="translate(172.464 65.484)" fill="none" stroke="#be894a" stroke-miterlimit="10" stroke-width="1.185"/>
      <path id="Path_3194" data-name="Path 3194" d="M24.6,26.838c2.965-2.307,8.135-3.665,10.459-6.536,3.154-3.892-1.473-5.041-3.189-7.516-.9-1.294-.034-3.779-1.446-4.477-.662-.327-4.054,1.069-5.047,1.1-3.532.122-2.151-1.14-4.311-2.566-1.209-.8-3.112.254-4.133-.8C15.619,4.69,18.082,2.021,16.715.893,15.212-.348,13.138,3.282,12.184,0,6.361,1.539,3.544,3.216,0,8.352" transform="translate(169.187 49.472)" fill="none" stroke="#be894a" stroke-miterlimit="10" stroke-width="1.185"/>
      <path id="Path_3195" data-name="Path 3195" d="M0,0C8.485.537,18.448-.529,26.718,1.478c4.361,1.059,8.408,3.174,12.8,4.151,4.739,1.057,9.624,1.818,14.44,2.659,2.143.376,4.223.959,6.339,1.311,2.009.332,4.535-.314,6.335.633C59.756,13.96,72.335,18.8,72.18,21.674c-.08,1.5-2.87,3.638-3.576,5.316-1.926,4.569-1.566,2.488-5.366,1.481-2.084-.554-3.4.777-5.621.024-2.867-.973-3.776-4.508-6.437-5.622-2.586-1.082-5.034.234-7.376-1.89-2.092-1.9-2.322-3.783-5.073-5.037-2.649-1.2-4.7-1.847-6.953-3.871-1.764-1.585-3.19-3.581-5.449-4.5" transform="translate(172.297 94.677)" fill="none" stroke="#be894a" stroke-miterlimit="10" stroke-width="1.185"/>
      <path id="Path_3196" data-name="Path 3196" d="M0,3.123C4.012,4.63,6.834,2.352,10.569,1.534A41.874,41.874,0,0,1,20.62,1.029c3.628.07,4.962-2.6,8.2.4,2.348,2.176,3.8,5.348,7.05,6.417,3.3,1.087,7.6.59,8.3,5.338a7.341,7.341,0,0,0-2.843.6c.182,1.272,1.043,3.322-.178,4.22-1.291.949-3.5-.989-4.967-.575,0,.244.179.5.179.744-2.816.562-5.873-2.825-8.744-3.374-2.969-.569-5.737-.585-8.624-1.513" transform="translate(221.029 129.663)" fill="none" stroke="#be894a" stroke-miterlimit="10" stroke-width="1.185"/>
      <path id="Path_3197" data-name="Path 3197" d="M0,3.375c4.565,2.117,8.4-2,12.5-2.764A26,26,0,0,1,20,.107c3.5.442,2.975,1.435,4.225,3.8,1.206,2.276,3.683,3.257,4.93,5.4-1.292,1.517-3.27,1.031-5.071,1.239-2.412.276-2.512.583-4.012,2.039-1.549,1.507-1.106,1.777-3.438,2.2a48.771,48.771,0,0,0-4.967.9c-1.6.452-3.042.911-4.592.22" transform="translate(242.996 115.311)" fill="none" stroke="#be894a" stroke-miterlimit="10" stroke-width="1.185"/>
      <path id="Path_3198" data-name="Path 3198" d="M25.249,3.136c-2.823.851-7.834.206-11.079.372A19.67,19.67,0,0,1,4.734,2.019C3.1,1.328,1.567.633,0,0" transform="translate(191.176 112.628)" fill="none" stroke="#be894a" stroke-miterlimit="10" stroke-width="1.185"/>
      <path id="Path_3199" data-name="Path 3199" d="M25.518,3.622c-7.09.655-14.233-2.129-21.5-3.358A18,18,0,0,0,0,.012" transform="translate(189.507 110.953)" fill="none" stroke="#be894a" stroke-miterlimit="10" stroke-width="1.185"/>
      <path id="Path_3200" data-name="Path 3200" d="M0,2.349C4.841,1.73,9.868-.071,14.718,0a56.2,56.2,0,0,1,8.566.99c3.467.613,3.552,1.127,4.933,3.484.621,1.06,3.062,2.957,3.417,3.958.735,2.067-1.67,2.38-1.846,4.342-.125,1.4,1.321,4.153,1.551,5.659.1.665-.442,1.177-.216,1.97.283.985,1.676,1.5,1.959,2.459,1.2,4.081-5.57,1.694-7.513,5.375-2.024-.35-4.508-1.188-6.47-.643,1.59,1.775,3.973,1.708,6.19,2.259,1.3.322,4.759,1.013,1.913,2.158A6.719,6.719,0,0,0,30.1,33.938a3.324,3.324,0,0,1-4.353,2.146" transform="translate(243.144 85.211)" fill="none" stroke="#be894a" stroke-miterlimit="10" stroke-width="1.185"/>
      <path id="Path_3201" data-name="Path 3201" d="M39.634,18.124c7.616-.465,12.089-6.914,18.934-9.274,3.167-1.092,6.563-.927,9.756-1.777,1.263-.336,3.688-.573,3.175-2.557-.521-2.012-2.7-.83-3.965-1.216-1.555-.472-2.416-1.635-3.921-2.23C62.176.5,61,1.305,59.8,0,55.922,1.235,52.8,2.885,48.6,3.5c-4.426.646-8.561,1.175-13.02,2.154A136.524,136.524,0,0,1,11.865,8.881C8.155,9.045,3.557,10.038,0,8.736" transform="translate(171.874 82.029)" fill="none" stroke="#be894a" stroke-miterlimit="10" stroke-width="1.185"/>
      <path id="Path_3202" data-name="Path 3202" d="M31.53,3.542c3.464.257,6.2-2.392,9.223-3.268,4.8-1.388,2.969,2.927,6.891,3.486.055.135-.187.4-.126.568,1.867-.512,3.806-1.749,5.636-.5-1.37,1.022-4.518,2.159-3.378,4.251.989,1.819,5.916.316,4.611,3.433-.605,1.446-5.024,2.115-6.408,2.776-2.143,1.02-4.111,2.508-6.434,3.127-4.61,1.231-10.124.47-14.869.7a68.241,68.241,0,0,0-13.118,2.255C8.986,21.481,4.548,22.063,0,23.3" transform="translate(172.792 66.228)" fill="none" stroke="#be894a" stroke-miterlimit="10" stroke-width="1.185"/>
      <path id="Path_3203" data-name="Path 3203" d="M0,6.122C5.036,6.507,8.683,3.619,11.689,0c.044.021.623.18.663.181.175,1.391-.908,2.481-1.593,3.608,1.272.64,2.823.823,3.873,1.745-1.225.8-2.549.977-3.629,1.762.842.921,2.13,1.024,3.3,1.471-1.282,1.286-4.733,4.551-6.348,4.667" transform="translate(225.546 69.249)" fill="none" stroke="#be894a" stroke-miterlimit="10" stroke-width="1.185"/>
      <path id="Path_3204" data-name="Path 3204" d="M0,1.343C3.245-.557,8.914.108,12.621.131A42.89,42.89,0,0,1,24.562,1.62a34.391,34.391,0,0,1,6.925,2.7c-.022.076-.041.151-.061.225-.339.179-.672.468-1.016.641,5.514,5.054-4.2,1.505-6.427,3.3-.136,3.468-5.929,2.845-8.287,2.968A29.711,29.711,0,0,0,6.28,14.016a12.664,12.664,0,0,1-4.907,1.513" transform="translate(237.437 69.606)" fill="none" stroke="#be894a" stroke-miterlimit="10" stroke-width="1.185"/>
      <path id="Path_3205" data-name="Path 3205" d="M12.389,20.656c4.758-1.732,8-7.761,10.5-11.769.556-.889,3.8-3.931,2.373-4.534S20.747,7.785,19.6,8.358c-3.892,1.954-2.192-.645-2.319-3.487-.51.343-1.662.53-2.165.889C15.147,4.694,17.3.209,15.5,0c-.775-.088-1.366,2.087-2.044,2.405-.958.447-1.883-.259-2.471-.023C8.009,3.576,4.1,7.286,2.127,10.009A10.586,10.586,0,0,0,0,13.775" transform="translate(178.881 36.329)" fill="none" stroke="#be894a" stroke-miterlimit="10" stroke-width="1.185"/>
      <path id="Path_3206" data-name="Path 3206" d="M22.152,19.871c.029-1.706,1.511-3.26,2.1-5a24.181,24.181,0,0,0,.6-4.842C25.4,5.7,27.955,3.585,29.23,0c-1.667.358-8.121,6.26-7.653,2.736-1.8.67-3.466,2.756-5.328,3.745a28.125,28.125,0,0,0-5.9,3.706c-3.592,3.256-5.234,7.9-7.692,11.925A48.01,48.01,0,0,0,0,27.244" transform="translate(162.02 22.746)" fill="none" stroke="#be894a" stroke-miterlimit="10" stroke-width="1.185"/>
      <path id="Path_3207" data-name="Path 3207" d="M4.115,22.723c3.243-1.914,4.017-6.879,5.574-10.09,1.638-3.375,5.32-4.5,7.212-7.49.933-1.468.847-3.4,1.171-5.1-1.782-.327-2.363,1.483-3.939,2.037-1.772.621-3.088.035-4.908.99C6.241,4.637,4.065,8.29,2.457,11.134A36.174,36.174,0,0,1,0,15.563" transform="translate(164.026 33.828)" fill="none" stroke="#be894a" stroke-miterlimit="10" stroke-width="1.185"/>
      <path id="Path_3208" data-name="Path 3208" d="M8.077,9.855C9.172,6.609,11.068,3.456,11.45,0c-1.1,1.05-1.811,4.147-3.226,4.71C6.061,5.574,7.3,2.429,6.973.694c-1.083.84-1.5,2.685-2.538,3.78C3.356,3.667,3.572,2.273,3.7.966,1.767,1.842,1.016,3.605,0,5.217" transform="translate(194.456 31.366)" fill="none" stroke="#be894a" stroke-miterlimit="10" stroke-width="1.185"/>
      <path id="Path_3209" data-name="Path 3209" d="M0,22.33c2.682-2,7.263-4.111,9.295-6.77-1.182-.423-4.23.134-4.6-1.523C4.268,12.129,7.17,12.4,8.282,11.5c.985-.8,1.844-2.316,2.955-3.359C12.122,7.3,14.414,5.6,14.8,4.465,15.683,1.833,12.764,2.521,13.616,0,10.359,1.383,3.538,3.05,1.214,5.759" transform="translate(200.659 39.418)" fill="none" stroke="#be894a" stroke-miterlimit="10" stroke-width="1.185"/>
      <path id="Path_3210" data-name="Path 3210" d="M0,24.9a57.342,57.342,0,0,1,7.7-8.171c2.9-2.353,6.275-2.744,9.418-4.615,3.02-1.8,5.927-4.251,8.8-6.3,1.3-.933,5.992-6.564,7.7-5.727,1.654.811-1.045,2.52.819,3.586,1.444.828,3.219-1.364,4.887-.971a13.1,13.1,0,0,1-.967,1.64c.934-.808,2.056-1.359,2.982-.305a21.649,21.649,0,0,1-8.018,10.9c-4.466,2.878-8.013,7.153-12.685,10.123-2.125,1.35-4.431,2.952-6.5,4.072" transform="translate(203.36 38.737)" fill="none" stroke="#be894a" stroke-miterlimit="10" stroke-width="1.185"/>
      <path id="Path_3211" data-name="Path 3211" d="M6.2,4.349C11.052,4,18.515-2.29,23.459.9c-1.615,0-3.964.3-5.375,1.457-.841.689-.81,1.912-1.69,2.6-.768.6-1.726.395-2.548.915-2.821,1.785-4.554,5.508-7.717,7.636C4.114,14.86,1.646,15.725,0,17.355" transform="translate(225.839 52.803)" fill="none" stroke="#be894a" stroke-miterlimit="10" stroke-width="1.185"/>
      <path id="Path_3212" data-name="Path 3212" d="M8.281.675c3.548,3.114,8.286-2.443,11.857-.064C18.817,1.76,17.112,1.94,15.923,3.258a10.392,10.392,0,0,1-.1,2.108c-.308.561-1.779-1.108-1.521.872-1.963.639-5.187-.466-7.5-.23C4.921,6.2,1.272,6.537,0,7.765" transform="translate(233.882 56.941)" fill="none" stroke="#be894a" stroke-miterlimit="10" stroke-width="1.185"/>
      <path id="Path_3213" data-name="Path 3213" d="M0,2.287c2.067-.244,4.8.171,6.933-.338C9.408,1.357,11.851-.874,14.409.373c-.5.327-.647.692-1,1.007C15.9,2.817,20.2,2.257,15.288,5,13.775,5.838,12.016,6,10.5,6.744,8.435,7.751,8.911,8,7.916,9.6c-.771,1.235-.239,2.4-2.369,2.52" transform="translate(250.097 57.85)" fill="none" stroke="#be894a" stroke-miterlimit="10" stroke-width="1.185"/>
      <path id="Path_3214" data-name="Path 3214" d="M0,15.449c.475-1.8,5.392-5.606,7.32-6.511A16.547,16.547,0,0,0,14.467,3.42c1.016-1.208,2.386-1.67,2.771-3.377-1.794-.369-2.457,1.736-4,2.374-1.592.658-3.325.312-5.027,1.142" transform="translate(207.365 39.053)" fill="none" stroke="#be894a" stroke-miterlimit="10" stroke-width="1.185"/>
      <path id="Path_3215" data-name="Path 3215" d="M8.389,0c1.024.84,6.089.46,8.281,1.192,3.283,1.1,6.042,3.371,9.26,4.563C29.521,7.081,33.473,7.2,37.1,8.422c3.756,1.269,7.336,3.136,10.984,4.691a30.62,30.62,0,0,1,9.3,6.405c-4.11-1.769-7.076-3.481-11.653-4.2-4.241-.659-6.863-3.629-10.762-4.411C27.3,9.369,18.676,9.628,11.441,6.63,7.672,5.066,3.433,4.331,0,2.066" transform="translate(252.552 78.873)" fill="none" stroke="#be894a" stroke-miterlimit="10" stroke-width="1.185"/>
      <path id="Path_3216" data-name="Path 3216" d="M0,0" transform="translate(263.811 142.575)" fill="none" stroke="#be894a" stroke-miterlimit="10" stroke-width="1.185"/>
      <path id="Path_3217" data-name="Path 3217" d="M45.831,0C51.3,3.249,55.071,9.219,56.609,15.346c1.37,5.47-1.561,12.5-3.854,17.513-1.576,3.446-4.525,5.383-7.327,7.751-2.776,2.348-4.545,5.625-7.229,7.938-2.732,2.351-5.554,1.673-8.886,1.2a33.054,33.054,0,0,0-9.833.273c-6.544.874-13.148-5.706-19.48-6" transform="translate(264.649 98.682)" fill="none" stroke="#be894a" stroke-miterlimit="10" stroke-width="1.185"/>
      <path id="Path_3218" data-name="Path 3218" d="M46.375,9.383C41.663,7.29,37.061,4.8,32.114,3.292,27.41,1.863,22.453,1.382,17.6.732A49.977,49.977,0,0,0,3.289.379C2.187.545,1.091.765,0,.988" transform="translate(248.817 22.34)" fill="none" stroke="#be894a" stroke-miterlimit="10" stroke-width="1.185"/>
      <path id="Path_3219" data-name="Path 3219" d="M0,27.924a140.123,140.123,0,0,1,16.039-.4c5.5.212,11.023.19,16.515.565,4.7.322,10.409,1.88,14.968.122,5.028-1.94,6.45-7.56,6.135-12.477C53.283,9.895,50.4,4.795,47.293,0" transform="translate(270.378 52.424)" fill="none" stroke="#be894a" stroke-miterlimit="10" stroke-width="1.185"/>
      <path id="Path_3220" data-name="Path 3220" d="M74.553,48.351c-.99-3.641.4-7.941-1.153-11.327-1.574-3.428-5.272-5.443-7.079-9.042-4.494-8.956-9.8-17.178-19.165-21.689C42.72,4.155,37.82,4.063,33.407,1.938c0-.007.422.181.466.1-3.817,1.908-9.908-1.76-14.027-2C15.194-.233,11.119,1.1,6.616,2.057A21.583,21.583,0,0,1,0,2.351" transform="translate(249.522 18.408)" fill="none" stroke="#be894a" stroke-miterlimit="10" stroke-width="1.185"/>
      <path id="Path_3221" data-name="Path 3221" d="M82.787,34.63c2.689.016,2.534-3.33,3.7-5.092,1.443-2.179,4.648-2.365,2.3-5.333,3.486-2.308,5.977-4.06,6.719-8.266.638-3.619,2.278-6.73.164-9.838C92.424,1.331,89.97-.657,84.53.19,79.568.963,76.024-.833,71.075.867c-4.29,1.472-7.547.375-11.588,2.924-4.392,2.767-9.431,1.662-13.627,4.28-4.077,2.544-5.935,5.366-10.826,6.789-4.78,1.394-7.9,4.346-12.012,7.031-4.084,2.661-7.542,6.379-11.666,8.858C7.8,32.885,3.721,32.108,0,33.807" transform="translate(154.231 4.434)" fill="none" stroke="#be894a" stroke-miterlimit="10" stroke-width="1.185"/>
      <path id="Path_3222" data-name="Path 3222" d="M103.73,6.591C96.677,1.338,91.8-.667,83,.192c-8.2.8-16.127,2-24.272,3.055-7.631.99-16.382,5.785-22.323,10.664A132.53,132.53,0,0,0,18.262,31.736,33.958,33.958,0,0,1,7.816,40.408C4.525,42.164-.4,43.6.026,48.1a8.945,8.945,0,0,0,.692,2.325" transform="translate(142.779 0)" fill="none" stroke="#be894a" stroke-miterlimit="10" stroke-width="1.185"/>
      <path id="Path_3223" data-name="Path 3223" d="M10.642.1C6.853-.5,8.67,1.74,6.91,3.848,5.8,5.177,4.859,4.364,3.634,5.1,1.92,6.131,2.716,6.309,2.059,7.513,1.627,8.3,2.7,10.08.173,9.286A5.1,5.1,0,0,0,1.262,13.74" transform="translate(151.387 78.766)" fill="none" stroke="#be894a" stroke-miterlimit="10" stroke-width="1.185"/>
      <path id="Path_3224" data-name="Path 3224" d="M34,0c-2.468,1.81-4.357,3.632-6.935,5.113-2.823,1.622-2.913,5.057-5.73,6.667-4.267,2.435-4.008-1.81-6.769-2.257C12.584,9.2,9.348,13.223,7,13.473c-3.811.4-4.749-2.16-7-4.4" transform="translate(155.521 134.144)" fill="none" stroke="#be894a" stroke-miterlimit="10" stroke-width="1.185"/>
    </g>
  </g>
</svg>
