<svg xmlns="http://www.w3.org/2000/svg" width="353.256" height="348.918" viewBox="0 0 353.256 348.918">
  <g id="Group_4123" data-name="Group 4123" transform="translate(-637.205 -116.594)" opacity="0.3">
    <path id="Path_2815" data-name="Path 2815" d="M896.778,207.709s-3.268,5.9-11.822,14.841-17.408,17.192-25.522,19.376-17.793,7.5-22.106,13.832" fill="none" stroke="#be894a" stroke-miterlimit="10" stroke-width="1.118"/>
    <path id="Path_2816" data-name="Path 2816" d="M840.9,211.839s6.36-9.767,8.865-16.985,2.037-9.793,8.51-7.591,11.088,3.648,14.423,7.173,7.066,8.73,10.109,10.836,2.026,9.93-2.751,16.872-11.314,13.814-25.941,21.516" fill="none" stroke="#be894a" stroke-miterlimit="10" stroke-width="1.118"/>
    <path id="Path_2817" data-name="Path 2817" d="M854.518,186.384a7.145,7.145,0,0,1,6.488,5.891c1.16,5.674.7,6.79,6.1,7.9s3.707,3.677,7.921,3.442,5.482-.153,7.783,1.65" fill="none" stroke="#be894a" stroke-miterlimit="10" stroke-width="1.118"/>
    <path id="Path_2818" data-name="Path 2818" d="M892.3,307.179s25.283,3.293,33.407-2.287,13.15-16.322,11.374-18.346-2.976-1.213-2.976-1.213-7.631-2.022-12.479-1.827-4.407,1.238-6.72,1.6a16.338,16.338,0,0,1-6.255.1" fill="none" stroke="#be894a" stroke-miterlimit="10" stroke-width="1.118"/>
    <path id="Path_2819" data-name="Path 2819" d="M934.1,285.333s-4.684,3.514-3.333,8.183-2.782-2.217-5.589,5.744-7.037,4.5-13.87,5.841-6.4-1.3-15.3,2.442" fill="none" stroke="#be894a" stroke-miterlimit="10" stroke-width="1.118"/>
    <path id="Path_2820" data-name="Path 2820" d="M909.8,178.935s2.908-2.893,7.894-1.295,7.987-1.517,12.3.67,8.524,1.956,12.878,3.51.648,3.733,3.4,4.421,4.835,1.968-1.4,9.833-13.86,11.051-14.589,14.441" fill="none" stroke="#be894a" stroke-miterlimit="10" stroke-width="1.118"/>
    <path id="Path_2821" data-name="Path 2821" d="M940.527,186.5s-9.569,10.193-20.752,15.829-18.852,10.1-19.045,11.1" fill="none" stroke="#be894a" stroke-miterlimit="10" stroke-width="1.118"/>
    <path id="Path_2822" data-name="Path 2822" d="M902.1,233.5a11.781,11.781,0,0,0,.618-3.651c-.179-1.156-2.493-.8-4.627.718s-3.1.69-5.661-1-6.556-.937-7.01.181-1.335-.98-4.7-.181-3.707,2.178-5.177,5.262-4.145,1.131-4.105,6.351-2.834,12.285-.781,17.891,5.347,9.765,12.441,8.315S902.818,243.982,902.1,233.5Z" fill="none" stroke="#be894a" stroke-miterlimit="10" stroke-width="1.118"/>
    <path id="Path_2823" data-name="Path 2823" d="M840.17,204.354s6.888.885,4.476-7.033-1.339-12.683-.554-13.014,6.554-4.918,13.785-4.577,8.2,1.169,9.435-.278,5.564-1.418,10.3-1.876,5.646-2.685,11.005-.936.316,2.946,4.711,3.867,4.7.179,7.312,4.929-.26,5.964,2.4,10.083,3.35,7.214-2.889,15.081" fill="none" stroke="#be894a" stroke-miterlimit="10" stroke-width="1.118"/>
    <path id="Path_2824" data-name="Path 2824" d="M780.741,272.372s-19.392-19.009-22.712-30.549-3.327-17.394-.32-14.655,5.687,2.534,8.952,5.165,7.177,8.992,12.809,8.464,1.626-3.455,1.556-10.2.714-7.08,5.08-7.687,8.263,2.063,8.263,7.918,4.328,5.879,6.887,1.72,1.984-1.144,7.065-2.977,5.44.481,13.056-1.187,11.2-7.8,12.659,2.986c1.164,8.591,3.658,23.016,3.2,31.641" fill="none" stroke="#be894a" stroke-miterlimit="10" stroke-width="1.118"/>
    <path id="Path_2825" data-name="Path 2825" d="M768.589,300.531s-10.894,1.2-10.384-8.564-.226-18.083,5.613-21.774,12.8,4.778,15.825,3.192.274-8.126,6.91-8.46,8.86,2.742,13.2.605,3.706,3.675,9.131.466,2.822-4.269,11.347-2.316,10.121,2.821,10.121,2.821" fill="none" stroke="#be894a" stroke-miterlimit="10" stroke-width="1.118"/>
    <path id="Path_2826" data-name="Path 2826" d="M764.859,269.685c-1.53.026-21.178-10.727-28.066-18.3s-14.229-8.177-16.489-16.471-2.47-16.828-6.435-20.393-13.2-12.309-7.029-15.216,5.869,3.689,9.972,3.192,4.438.29,8.043,1.541,3.968,3.567,3.474,5.316.232,4.213,1.734,2.659,2.286-1.889,4.7.177,4.753,3.238,3.158,8.222-8.962,14.558-5.246,16.07,7.726-1.4,8.706,3.114,2.479,2.962,7.506,3.922,6.463-4.764,9.715.029" fill="none" stroke="#be894a" stroke-miterlimit="10" stroke-width="1.118"/>
    <path id="Path_2827" data-name="Path 2827" d="M848.207,291.326s.578-3.013-3.156-8.217-6.834-4.518-7.551-9.143,2.462-12.439-2.687-11.5-3.787,9.3-6.194,13.088-2.451,4.42-6.845,3.5.082,4.585-4.735,6.308-10.262-4.61-12.411-.933-3.676,3.7-4.35,10.151-4.721,10,1.007,11.9a73.559,73.559,0,0,1,10.659,4.585" fill="none" stroke="#be894a" stroke-miterlimit="10" stroke-width="1.118"/>
    <path id="Path_2828" data-name="Path 2828" d="M855.3,309.96s4.008-5.441,1.06-10.974-6.138-8.3-12.4-7.817-6.8,4.575-6.8,4.575" fill="none" stroke="#be894a" stroke-miterlimit="10" stroke-width="1.118"/>
    <path id="Path_2829" data-name="Path 2829" d="M839.811,346.274c.207,1.134,6.672,12.634,6.883,21.173s7.3,18.8,11.734,19.089-.421-2.614-.174-12.268-1.166-12.124-1.166-12.124,4.51,6.37,9.021,7.728c3.479,1.05,2,6.583,6.913,1.431s6.544-2.607,6.887-9.839a75.633,75.633,0,0,0-1.284-15.48" fill="none" stroke="#be894a" stroke-miterlimit="10" stroke-width="1.118"/>
    <path id="Path_2830" data-name="Path 2830" d="M879.716,353.687a26.879,26.879,0,0,1,7.505,6.854c3.033,4.268,9.45,9.264,11.709,0s-5.307-22.107-5.307-22.107a23.882,23.882,0,0,1,7.132-2.08c4.626-.714,7.543-2.562,4.02-5.081s-5.964-1.47-5.964-1.47" fill="none" stroke="#be894a" stroke-miterlimit="10" stroke-width="1.118"/>
    <path id="Path_2831" data-name="Path 2831" d="M836.8,251.528s7.4-12.121,3.861-24.183,3.909-17.05-1.493-24.019-16.185-11.359-20.535-7.06-10.505,10.822-14.147,10.887" fill="none" stroke="#be894a" stroke-miterlimit="10" stroke-width="1.118"/>
    <path id="Path_2832" data-name="Path 2832" d="M808.321,229.569a9.694,9.694,0,0,1-1.82-7.244c.661-4.285-1.638-6.086-1.638-6.086" fill="none" stroke="#be894a" stroke-miterlimit="10" stroke-width="1.118"/>
    <path id="Path_2833" data-name="Path 2833" d="M902.717,229.852s10.658-5.415,14.086-11.171,3.249-6.916,9.144-7.55,6.61-1.861,10.37-.98,5.332.22,3.624,4.944-.853,5.289,3.237,6.954-4.393,4.932-6.47,9.505-4.544,5.3-1.472,8.937,5.428,8.5-.576,8.87-9.353-.989-9.353-.989" fill="none" stroke="#be894a" stroke-miterlimit="10" stroke-width="1.118"/>
    <path id="Path_2834" data-name="Path 2834" d="M891.709,293.971s16.307-4.734,20.989-14.1a149.12,149.12,0,0,0,10.033-25.179c1.983-6.994,6.129-8.125,2.368-9s-2.905-.316-7.671-1.389-4.048-2.3-10.246-.923-11.139,5-12.42,12.936c-1.307,8.1-3.619,20.661-5.2,23.475" fill="none" stroke="#be894a" stroke-miterlimit="10" stroke-width="1.118"/>
    <path id="Path_2835" data-name="Path 2835" d="M910.893,282.789c.784-.334,14.738-2.2,19.1-8.663s5.672-7.014,10.684-9.739,5.288-5,1.113-5.4-7.062-.924-7.062-.924" fill="none" stroke="#be894a" stroke-miterlimit="10" stroke-width="1.118"/>
    <path id="Path_2836" data-name="Path 2836" d="M918.672,266.264s11.319-3.848,17.8-9.659,3.016-5.276-1.817-7.244" fill="none" stroke="#be894a" stroke-miterlimit="10" stroke-width="1.118"/>
    <path id="Path_2837" data-name="Path 2837" d="M839.3,203.253c7.486-10.5,2.232-30.32-6.356-37.353-4-3.279-4.2-3.079-7.847-1-.761.435-1.611,2.816-2.523,3.582-1.169.984-3.205.605-4.456,1.575-4.52,3.513-8.525,8.4-11.948,12.777-2.717,3.473-5.07.677-1.989,6.813a14.88,14.88,0,0,0,7.623,6.7" fill="none" stroke="#be894a" stroke-miterlimit="10" stroke-width="1.118"/>
    <path id="Path_2838" data-name="Path 2838" d="M810.265,204.228c4.877-5.41-.747-11.2,2.055-16.18,2.191-3.9,14.177-5.33,15.675-2.292.907,1.838-.7,6.809-.555,9.093" fill="none" stroke="#be894a" stroke-miterlimit="10" stroke-width="1.118"/>
    <path id="Path_2839" data-name="Path 2839" d="M729.543,296.844c-8.954,2.674-14.977,3.184-17.963,12.332-.825,2.529-3.37,7.027-1.862,9.53,1.556,2.583,6.747,1.832,8.766,4.687,1.981,2.81-.02,6.964,3.149,9.139,3.085,2.118,8.535-.754,11.828-.984,8.6-.6,14.732.365,23.191-2.912,8.69-3.366,13.724-9.687,21.565-14.066" fill="none" stroke="#be894a" stroke-miterlimit="10" stroke-width="1.118"/>
    <path id="Path_2840" data-name="Path 2840" d="M775.973,312.464c-5.672,2.912-9.936,7.065-15.292,10.278-1.76,1.06-5.52,3.91-6.95,4.207-2.974.619-6.3-.623-9.569.277-3.088.85-7.632,4.18-9.807,4.232" fill="none" stroke="#be894a" stroke-miterlimit="10" stroke-width="1.118"/>
    <path id="Path_2841" data-name="Path 2841" d="M711.77,320.191c-11.009,12.675-21.958,30.556,2.41,33.217,10.194,1.112,15.989.257,24.488-5.663,7.875-5.491,18.161-6.964,25.215-13.521,5.995-5.57,9.541-13.09,16.455-17.837" fill="none" stroke="#be894a" stroke-miterlimit="10" stroke-width="1.118"/>
    <path id="Path_2842" data-name="Path 2842" d="M705.983,327.374c1.746,5.908-2.015,10.975,1.151,15.27.055.076,5.128,4.037,5.484,4.278,3.031,2.043,4.435,2.7,8.316,2.554,7.064-.265,11.062-4.5,16.683-7.974,5.68-3.509,12.306-3.881,17.935-7.066,6.149-3.477,10.876-9.816,18.182-11.2" fill="none" stroke="#be894a" stroke-miterlimit="10" stroke-width="1.118"/>
    <path id="Path_2843" data-name="Path 2843" d="M763.524,270.381c-2.851-.572-13.981,3.126-15.792,5.676s.871,3.358-1.363,5.991c-.864,1.017-3.013.937-3.952,1.966-.976,1.063-.045,2.627-1.206,3.674-2.292,2.071-6.467.841-9.367,1.948,2.539-3.534-2.193-2.765-3.7-3.827-1.311-.924-2.3-3.616-3.784-3.912-1.88-.376-4.877,3.307-6.7,3.935-3.813,1.318-2.909-.08-5.992-1.314-8.8-3.529-16.788-8.6-19.909-19.241-1.4-4.769-1.156-14.163-2.172-19.123" fill="none" stroke="#be894a" stroke-miterlimit="10" stroke-width="1.118"/>
    <path id="Path_2844" data-name="Path 2844" d="M716.541,218.788c-7.255,5.043-11.476-5.195-15.166-9.948-2.554-3.286-12.958-10.282-15.865-6.039-1.8,2.627.015,4.066-2.938,6.419-1.916,1.527-6.605,1.862-7.677,4.115-1.616,3.4,2.815,5.534,4.551,7.691,2.251,2.8,2.53,6.507,4.749,9.185,7.322,8.838,20.759,8.388,28.624,15.577-2.164,1.354-5.053.771-7.522,1.72,1.938,3.621,6.116,2.177,8.988,4.011,2.66,1.7,2,4.237,5.263,5.179,2.311.667,4.746.09,7.185.6,2.624.545,4.3,1.225,7.169.833,2.917-.4,5.934-1.517,8.913-1.618" fill="none" stroke="#be894a" stroke-miterlimit="10" stroke-width="1.118"/>
    <path id="Path_2845" data-name="Path 2845" d="M706.371,248.976c-3.411,2.914-11.876-7.789-17.008-3.306.767,2.993,3.45,1.419,5.055,3.2,1.733,1.92.838,2.934,1.007,5.4,4.576-1.474,3.545,2.133,4.679,4.424,1.72,3.483,2,1.739,5.178,3.547,4.452,2.531-.364,2.867,1.8,5.188,1.549,1.666,5.459-1.484,7.646.355,2.244,1.891,1.414,5.944-.351,7.677.747.5,1.129,1.644,1.879,2.137-3.032,3.036-2.66,5.062-.577,8.563" fill="none" stroke="#be894a" stroke-miterlimit="10" stroke-width="1.118"/>
    <path id="Path_2846" data-name="Path 2846" d="M689.81,245.678c-3.41,1.311-5.111-1.3-7.972-2.362-1.155-.425-3.248-1.488-4.5-.811-2.446,1.324-.267.548-.2,2.269.058,1.385,2.253.906,1.821,2.81-.248,1.086-3.317.772-3.566,2.321-.256,1.572,4.8,6.076,6.094,7.053,2.753,2.09,6.535,3.392,9.7,4.777" fill="none" stroke="#be894a" stroke-miterlimit="10" stroke-width="1.118"/>
    <path id="Path_2847" data-name="Path 2847" d="M678.661,254.354c-12.2-2.885-18.338,6.073-26.342,13.6a23.173,23.173,0,0,0-7.09,11.612c-1.552,5.093-4.477,9.286-6.29,14.2-2.69,7.3-.268,22.494,3.425,29.32,4.454,8.235,15.943,13.151,24.779,14.283,5.124.654,10.056.648,15.1,1.946,4.9,1.26,9.175,2.732,14.242,1.423a24.981,24.981,0,0,0,3.081-1.054" fill="none" stroke="#be894a" stroke-miterlimit="10" stroke-width="1.118"/>
    <path id="Path_2848" data-name="Path 2848" d="M693.185,269.948c-6.391,2.648,3.86,8.686-3.377,9.425-2.184.221-5.191-2.926-7.448-.917-2.73,2.432,1.1,3.584,1.47,5.97.407,2.628-2.308,3.725-2.078,5.994.284,2.833,3.85,3.448,6.014,4.241,4.6,1.694,6.763,5.948,10.835,7.488,2.208.834,5.067-.07,7.442.581,2.54.7,4.75,2.331,7.351,2.993" fill="none" stroke="#be894a" stroke-miterlimit="10" stroke-width="1.118"/>
    <path id="Path_2849" data-name="Path 2849" d="M710.911,305.054c-3.207,2.143-7.043.24-10.616.815-2.817.454-7.94,3.554-2.816,5.576-4.642,5.935,8.863,4.614,11.857,3.813" fill="none" stroke="#be894a" stroke-miterlimit="10" stroke-width="1.118"/>
    <path id="Path_2850" data-name="Path 2850" d="M693.3,269.654c-2.144,13.228,17.584,17.268,26.171,20.544,9.729,3.715,16.816,16.644,29.038,14.389,2.94-.54,4.959-2.492,7.987-2.951s5.439-.077,8.474-1.253" fill="none" stroke="#be894a" stroke-miterlimit="10" stroke-width="1.118"/>
    <path id="Path_2851" data-name="Path 2851" d="M858.472,310.909c-6.561.153-10.093-12.71-16.256-9.59.092-4.176-7.778-7.6-10.575-5.786-2.634,1.712-1.014,3.011-4.613,4.024-3.539,1-4.9.513-7.874,3.03-2.2,1.863-8.943,7.127-6.774,10.508,1.088,1.693,5.986,1.725,7.8,2.79,2.606,1.528,3.622,3.239,6.772,4.052,5.421,1.4,13.2,7.775,18.773,7.473" fill="none" stroke="#be894a" stroke-miterlimit="10" stroke-width="1.118"/>
    <path id="Path_2852" data-name="Path 2852" d="M829.055,332.845c0-16.64-15.032-14.657-15.735-10.037-3.382-5.093-4.6-4.58-9.214-2.092-3.952,2.131-8,1.574-11.954,3.256-7.2,3.062-13.24,10.684-5.383,15.853,3.29,2.166,6.029,4.787,9.227,7,3.042,2.1,6.787,2.367,9.816,4.459,6.944,4.8,11.882,10.878,20.179,4.789,7.2-5.291,14.4-7.972,18.18-16.5q.495-1.119.961-2.248" fill="none" stroke="#be894a" stroke-miterlimit="10" stroke-width="1.118"/>
    <path id="Path_2853" data-name="Path 2853" d="M730.655,352.155c-3.213,1.886-1.558,6.808-3.364,10.315-1.852,3.587-4.269,6.317-.1,9.575,5.481-.02,8.095-4.68,12.945-5.721,5.678-1.219,4.7,5.432,9.044,8.137,2.817,1.752,4.8,1.672,7.555-.136" fill="none" stroke="#be894a" stroke-miterlimit="10" stroke-width="1.118"/>
    <path id="Path_2854" data-name="Path 2854" d="M774.495,321.819c-3.857,5.886-6.735,13.582-8.607,20.526a28.3,28.3,0,0,1-1.826,5.293c.808.977-.05,5.286-.254,7.434-.444,4.634-.136,8.622-.916,13-1.122,6.307,1.24,12.1-.207,18.493-.608,2.7-1.625,5.268-2.4,7.746a17.936,17.936,0,0,0,12.383-1.991c4.544-2.5,4.928-5.771,7.735-9.549,5.477-7.382,11.975-12.417,15.027-21.625,1.408-4.247,3.281-8.591,3.828-13.06" fill="none" stroke="#be894a" stroke-miterlimit="10" stroke-width="1.118"/>
    <path id="Path_2855" data-name="Path 2855" d="M795.457,346.019c-6.407,4.257-2.581,8.863-4.431,14.033-.979,2.735-3.471,3.6-4.368,6.32-.411,1.238.484,2.258,0,3.6-.419,1.155-1.973,2.18-2.638,3.266a13.678,13.678,0,0,0-2.132,7.372" fill="none" stroke="#be894a" stroke-miterlimit="10" stroke-width="1.118"/>
    <path id="Path_2856" data-name="Path 2856" d="M763.8,354.955c-9.649,7.293-6.886,18.824-6.8,29.509.057,7.277,6.893,28.388,16.482,16.164,3.483-4.442,3.879-10.908,5.748-16.141" fill="none" stroke="#be894a" stroke-miterlimit="10" stroke-width="1.118"/>
    <path id="Path_2857" data-name="Path 2857" d="M699.795,340.81c-2.482,2.068-5.546,6.566-5.826,9.9-.509,6.036,3.031,3.107,6.417,5.239,1.512.951,1.446,3.585,2.633,4.267,1.862,1.066,2.853-.353,4.807-.435,3.737-.155,6.522,2.286,10.258,1.251,3.434-.953,6.919-4.3,8.368-7.476" fill="none" stroke="#be894a" stroke-miterlimit="10" stroke-width="1.118"/>
    <path id="Path_2858" data-name="Path 2858" d="M832.707,351.642c-3.338,4.8-6.838,8.354-13.049,8.542-5.221.16-12.378-3.588-17.022.457-5.793,5.044,3.115,6.9,7.172,7.088,6.526.3,12.718-1.1,17.787-5.318a29.64,29.64,0,0,0,9.873-14.131" fill="none" stroke="#be894a" stroke-miterlimit="10" stroke-width="1.118"/>
    <path id="Path_2859" data-name="Path 2859" d="M850.259,326.846c-7.949.51-20.137,4.16-24.892,9.016-2.1,2.152-4.577,1.8-7.091,3.9-1.372,1.149-.788,2.569-2.216,3.455-.976.606-3.578.437-4.8.8a21.634,21.634,0,0,0-8.6,5.452" fill="none" stroke="#be894a" stroke-miterlimit="10" stroke-width="1.118"/>
    <path id="Path_2860" data-name="Path 2860" d="M771.984,402.4c-1.1,3.821-6.522,13.122,2.854,10.348-.528,8.43-4.749,18.14,7.552,17.937,11.78-.189,18.109-9.657,27.278-15.414,8.864-5.569,12.888-9.137,17.581-18.514,3.733-7.457,9.385-13.758,11.534-22.006,2.2-8.433-.705-16.763-.24-25.265.042-.791.11-1.582.193-2.365" fill="none" stroke="#be894a" stroke-miterlimit="10" stroke-width="1.118"/>
    <path id="Path_2861" data-name="Path 2861" d="M839.246,362.324c-2.756,5.51-4.229,12.133-7.478,17.256-3.287,5.183-8.867,8.606-12.266,13.7-3.763,5.642-3.806,9.2-10.3,12.971-4.8,2.785-9.171,5.783-11.951,10.735-2.551,4.546-4.4,10.588-9.6,12.947" fill="none" stroke="#be894a" stroke-miterlimit="10" stroke-width="1.118"/>
    <path id="Path_2862" data-name="Path 2862" d="M803.01,230.367c-1.59-7.15-2.278-10.307,2.921-15.485,6.764-6.739.021-6.887-5.256-9.572-2.668-1.354-4.036-4.583-7.264-4.934-3.27-.358-6.036,2.61-9.235,3-2.56.308-6.97-1.832-8.894.756-2.141,2.879,1.386,5.17,3.047,7.023,1.933,2.156,3.308,4.979,5.38,6.949,2.152,2.048,4.817,2.665,6.583,5.308" fill="none" stroke="#be894a" stroke-miterlimit="10" stroke-width="1.118"/>
    <path id="Path_2863" data-name="Path 2863" d="M764.429,206.166c.039-6.34-1.1-7.126-6.949-6.8-4.251.235-9.143-3.105-13.224-1.25-2.308,1.047-8.191,6.016-7.54,8.29.55,1.925,8.023,6.352,9.806,7.889,3.618,3.116,9.606,8.078,12.948,11.516" fill="none" stroke="#be894a" stroke-miterlimit="10" stroke-width="1.118"/>
    <path id="Path_2864" data-name="Path 2864" d="M752.205,219.029c-3,.24-3.29,1.878-5.04,3.774-1.245,1.352-4.591,3.409-5.356,4.87-2.6,4.96,5.013,4.865,8.14,6.83,2.347,1.475,3.6,3.263,6.677,3.09" fill="none" stroke="#be894a" stroke-miterlimit="10" stroke-width="1.118"/>
    <path id="Path_2865" data-name="Path 2865" d="M803.7,184.972c-.7-4.6-3.383-3.033-6.392-3.715-2.835-.642-5.276-3.825-8.273-3.511-8.381.882-5.265,9.9-4.613,14.52.609,4.319,3.374,5.035,5.411,8.579" fill="none" stroke="#be894a" stroke-miterlimit="10" stroke-width="1.118"/>
    <path id="Path_2866" data-name="Path 2866" d="M812.113,199.127c-5.121,1.755-6.987-4.665-10.925-4.447-1.124.062-4,2.3-4.635,2.756-1.478,1.057-3.324-.054-3.249,2.927" fill="none" stroke="#be894a" stroke-miterlimit="10" stroke-width="1.118"/>
    <path id="Path_2867" data-name="Path 2867" d="M783.425,184.463c-3.135-2.482-7.2.433-10.509,1.97-3.136,1.453-6.526,5.419-9.152,8-1.673,1.648-2.612,2.52-3.141,5.017" fill="none" stroke="#be894a" stroke-miterlimit="10" stroke-width="1.118"/>
    <path id="Path_2868" data-name="Path 2868" d="M784.2,192.7c-2.9-.933-3.179-.586-5.5.22-.58.2-1.714,1.753-2.631,2.178-.9.415-1.776-1.531-2.521-.987-2.328,1.71-.041,7.087-2.917,9.932" fill="none" stroke="#be894a" stroke-miterlimit="10" stroke-width="1.118"/>
    <path id="Path_2869" data-name="Path 2869" d="M774.951,204.425A15.515,15.515,0,0,0,764.4,206.2c-6.005,3.651-2.032,4.718.277,8.1,1.212,1.767.9,3.931,2,5.808,5.621-.341,12.308.053,16.131-2.839" fill="none" stroke="#be894a" stroke-miterlimit="10" stroke-width="1.118"/>
    <path id="Path_2870" data-name="Path 2870" d="M759.174,227.956c1.118-5.093-1.773-10.945,6.2-11.421" fill="none" stroke="#be894a" stroke-miterlimit="10" stroke-width="1.118"/>
    <path id="Path_2871" data-name="Path 2871" d="M740.126,200.747c-6.577-3.335.765-8.333,2.46-10.939,1.331-2.042.591-4.414,2.536-6.332,2.661-2.629,3.211-.327,4.522-4.714.9-3.016.629-5.343,2.746-8.055,1.649,5.019,7.934,1.741,10.968,4.469,1.726,1.551,2.682,4.931,4.04,6.827s3.192,2.674,3.514,5.284" fill="none" stroke="#be894a" stroke-miterlimit="10" stroke-width="1.118"/>
    <path id="Path_2872" data-name="Path 2872" d="M764.721,153.224c.848-6.432-1.918-12.1-2.283-18.516-.489-8.6-5-8.378-10.816-4.09-5.954,4.393-13.053,3.838-17.461,10.5-4.5,6.794-8.134,12.98-3.144,20.018,2.61,3.678,2.891,5.024,3.016,9.455.107,3.736-.455,5.188,3.315,7.058" fill="none" stroke="#be894a" stroke-miterlimit="10" stroke-width="1.118"/>
    <path id="Path_2873" data-name="Path 2873" d="M736.812,205.078c-8.865-9.029-17.675-12.624-19.451-26.934-.576-4.647,1.577-12.378,7.211-9.311,1.393.758,2.938,2.774,4.453,3.69,1.66,1.006,2.963,1.851,4.587,3.028,4.218,3.06,8.595,2.877,11.146,8.317" fill="none" stroke="#be894a" stroke-miterlimit="10" stroke-width="1.118"/>
    <path id="Path_2874" data-name="Path 2874" d="M738.626,178.265c-2.1-4.974,2.445-5.887,4.467-8.407,2.276-2.827,2.492-7.1,5.51-10.022.17,2.931,4.341,4.29,5.907,6.578a35.334,35.334,0,0,1,3.516,7.707" fill="none" stroke="#be894a" stroke-miterlimit="10" stroke-width="1.118"/>
    <path id="Path_2875" data-name="Path 2875" d="M822.25,168.592c-.618-2.063-2.705-3.508-2.585-6,.108-2.223,1.446-2.832,1.427-4.882-.011-1.311-.915-3.768-1.091-5.535a36.47,36.47,0,0,0-.853-6.039c.358.389,1.455,1.629,2.115,2.333.526,5.115,6.126,9.323,5.634,15.479" fill="none" stroke="#be894a" stroke-miterlimit="10" stroke-width="1.118"/>
    <path id="Path_2876" data-name="Path 2876" d="M819.376,146.48c-1.406-3.257-6.091-11.177-9.547-12.516-6.092-2.363-6.96,6.27-10.634,8.844a88.5,88.5,0,0,0-12.76,10.251c-3.724,3.837-2.5,10.6-3.958,15.644-1.4,4.839-5.625,10.021-4.173,15.225" fill="none" stroke="#be894a" stroke-miterlimit="10" stroke-width="1.118"/>
    <path id="Path_2877" data-name="Path 2877" d="M760.2,174.062c-.293-3.345-1.69-6.995-2.016-10.093-.454-4.316,3.157-3.262,3.824.359,2.33-1.6,1.27-3.629,2.492-5.6,1.8-2.9,1.386-1.155,4.072-2.324,3.188-1.39,5.615-5.726,8.917-3.023,3.606,2.952,1.939,7.08.313,10.039-2,3.64-2.149,6.874-3.558,10.92-1.541,4.429-1.314,6.391,1.982,10.463" fill="none" stroke="#be894a" stroke-miterlimit="10" stroke-width="1.118"/>
    <path id="Path_2878" data-name="Path 2878" d="M766.3,157.175c-3.8-3.716-.251-5.623,1.767-8.663,1.479-2.233,1.9-7.691,4.745-8.354,3.783-.883,3.794,3.894,7.6.19,2.033-1.985,3-6.068,4.731-8.437,7.7-10.5,10.327,2.285,18.022-.977,4.561-1.933,4.391-18.375,11.008-12.532,2.18,1.923,4.381,6.306,3.947,8.97-.629,3.866-5.566,6.9-3.284,11.233" fill="none" stroke="#be894a" stroke-miterlimit="10" stroke-width="1.118"/>
    <path id="Path_2879" data-name="Path 2879" d="M827.937,163.507c-.08-5.138.572-11.261-.185-16.367-.719-4.844-4.084-10.705,1.22-13.4,6.692-3.4,24.02-2.72,30.89-.558,5,1.573,9.739,4.052,14.8,5.664,4.9,1.56,8.238,5.371,12.781,7.746,6.308,3.3,7.127,4.8,9.869,11.108,2.231,5.141,7.177,7.752,9.819,12.557,4.62,8.4,2.736,18.47-1.095,26.81q-.395.859-.863,1.681" fill="none" stroke="#be894a" stroke-miterlimit="10" stroke-width="1.118"/>
    <path id="Path_2880" data-name="Path 2880" d="M827.887,149.258c.638-2.03,1.326-8.691,3.133-9.74,1.281-.747,5.923,1.852,7.674,1.884,3.532.063,5.88-2.849,8.993-3.053,2.694-.179,5.357,2.206,7.78,3.265,5.094,2.225,10.952,2.114,16.3,3.429,3.768.923,12.459.606,15.168,3.574,2.042,2.234,1.488,5.64,3.618,8.006,1.879,2.09,5.5,2.607,2.313,6.445,1.63,4.094,4.765,7.948,6.135,11.47.9,2.316-1.376,3.521,2.159,4.509,1.893.528,4.3-1.255,5.636-2.471,1.1,1.406,1.118,3.152,1.781,4.78-2.431,2.34-6.459.593-7.738,4.778" fill="none" stroke="#be894a" stroke-miterlimit="10" stroke-width="1.118"/>
    <path id="Path_2881" data-name="Path 2881" d="M905.4,167.331c1.018-3.892-1.656-7.038-.972-10.2.483-2.231,2.9-1.748,3.555-3.39,1.346-3.361-.471-1.505-1.675-3.425-1.692-2.706-2.63-5.476-7.072-4.906-1.2.154-4.2,2.345-5.26,1.617-1.916-1.321,1.156-2.6.474-4.041-2.084-4.423-6.521.515-9.987,1.358" fill="none" stroke="#be894a" stroke-miterlimit="10" stroke-width="1.118"/>
    <path id="Path_2882" data-name="Path 2882" d="M896.712,207.693c2.766-.321,3.841,4.8,4.74,6.7,1.632,3.461,1.8,5.581.931,9.667-.377,1.774-.27,3.6-.922,5.364" fill="none" stroke="#be894a" stroke-miterlimit="10" stroke-width="1.118"/>
    <path id="Path_2883" data-name="Path 2883" d="M837.584,274.689c6.915-3.9,8.5-14.557,17.72-15.975,0,.784.434,1.129.36,1.934,3.9.719,11.822-3.626,13.241,1.208,1.358,4.637-5.257,7.728-5.973,11.109-.57,2.7,1.553,3.667,4.413,2.188,1.215,1.642-1.3,6.863-2.361,8.41-2.057,3-6.005,4.308-9.277,6-1.973,1.022-3.117,1.458-5.075,2.542" fill="none" stroke="#be894a" stroke-miterlimit="10" stroke-width="1.118"/>
    <path id="Path_2884" data-name="Path 2884" d="M896.24,308.21c-5.376,1.307.732,6.192-1.654,8.814-3.211,3.535-3.3-4.035-7.024-1.966-2.426,1.345-.827,6.364-2.512,8.413-.955,1.162-3.446,1.333-4.5,2.382s-1.127,3.058-1.994,3.77c-3.1,2.546-8.706,1.881-2.825,6.076-1.833,1.027-4.25,1.146-5.1,3.419,5.21,1.376.859,8.16,6.347,7.716,4.938-.4,7.169-7.1,10.393-9.617,4.242-3.31,7.408-1.468,10.755-6.55,2.629-3.992,3.326-6.395,2.692-11.189-.518-3.914-.693-9.9-4.969-11.6" fill="none" stroke="#be894a" stroke-miterlimit="10" stroke-width="1.118"/>
    <path id="Path_2885" data-name="Path 2885" d="M859.439,312.622c-.669,4.593-.376,9.1-4.9,12.188-1.869,1.28-4.278,1.568-5.647,3.349-.724.938-1.1,3.75-1.652,5.043-.731,1.706-1.672,3.362-2.473,5.009" fill="none" stroke="#be894a" stroke-miterlimit="10" stroke-width="1.118"/>
    <path id="Path_2886" data-name="Path 2886" d="M859.753,312.692a6.206,6.206,0,0,0,6.226.736c-1.138,1.521-3.429,2.375-5.138,3.628,10,6.983,27.812,3.282,31.077-9.438.615-2.385,1.6-7.113.133-9.231.051-.1.055-.1.008,0,.037.069-.138.415-.25.393a87.2,87.2,0,0,0-3.661-24.421c-.661-2.339-.256-5.041-1.388-7.137-2.354.3-3.288,2.59-4.918,3.949-1.046-1.116-3.528-1.946-4.039-2.174,0,0-5.57,1.116-8.377,9.075s-5.591,5.745-4.956,11.641.567,5-1.815,10.315S855,309.455,859.753,312.692Z" fill="none" stroke="#be894a" stroke-miterlimit="10" stroke-width="1.118"/>
    <path id="Path_2887" data-name="Path 2887" d="M768.079,300.788c3.464-.489,6.5,9.927,8.818,12.715,3.716,4.473,8.768,3.556,13.576,5.956,2.318,1.159,3.5,2.995,6.283,3.223" fill="none" stroke="#be894a" stroke-miterlimit="10" stroke-width="1.118"/>
    <path id="Path_2888" data-name="Path 2888" d="M804.084,307.379c-2.952,3.331-4.092,4.758.438,6.792,3.729,1.673,5.418,1.248,6.131,5.576" fill="none" stroke="#be894a" stroke-miterlimit="10" stroke-width="1.118"/>
    <path id="Path_2889" data-name="Path 2889" d="M779.855,273.561c2.61,4.671,7.525-.077,10.1-2.11,3.7-2.922,6.085-1.114,10.8-2.311,2.135-.54,2.9-1.988,5.157-2.071" fill="none" stroke="#be894a" stroke-miterlimit="10" stroke-width="1.118"/>
    <path id="Path_2890" data-name="Path 2890" d="M815.868,411.058c.669,11.519,3.631,20.982,10.29,30.49,5.316,7.59,13.423,20.75,23.089,23,11.443,2.67,25.912-9.567,30.559-19.145,2.87-5.91,4.526-12.246,7.69-18.071,3.041-5.6,7.508-10.692,9.834-16.642,3.245-8.293,3.879-18.278,5.338-26.992,1.14-6.8,5.861-22.556-.6-28.065a8.216,8.216,0,0,0-2.856-1.459" fill="none" stroke="#be894a" stroke-miterlimit="10" stroke-width="1.118"/>
    <path id="Path_2891" data-name="Path 2891" d="M892.716,365.478c-.86,4.608-5.262,7.957-7.68,12.12-2.931,5.046-1.8,10.524-4.414,16.065-3.322,7.044-1.953,12.93-1.651,20.389.2,4.877-1.66,9-1.023,13.922a87.116,87.116,0,0,0,1.949,9.6c.579,2.284,1.9,3.525,1.05,5.376" fill="none" stroke="#be894a" stroke-miterlimit="10" stroke-width="1.118"/>
    <path id="Path_2892" data-name="Path 2892" d="M880.49,443.956c-3.778,3.061-7.055,3.518-10.437,7.168-2.789,3.014-4.949,6.271-7.868,9.187a30.7,30.7,0,0,1-5.759,4.168" fill="none" stroke="#be894a" stroke-miterlimit="10" stroke-width="1.118"/>
    <path id="Path_2893" data-name="Path 2893" d="M905.218,359.725c6.116,1.919,12.495,2.951,18.559,5.016,7.6,2.591,14.378,7.109,22.389,8.518,18.087,3.185,24.807-8.709,34.751-21.083,5.347-6.654,9.789-13.34,8.893-22.215-.818-8.1-3.267-16.112-4.3-24.239a93.789,93.789,0,0,0-8.086-28.355c-3.345-7.231-3.876-13.115-4.674-20.9-1.8-17.538-16.571-20.958-30.8-25.8-1.466-.5-2.221-.5-3.683-1.009" fill="none" stroke="#be894a" stroke-miterlimit="10" stroke-width="1.118"/>
    <path id="Path_2894" data-name="Path 2894" d="M971.523,256.918c-2.817,3.615-8.1-.837-9.908,3.766-1.6,4.079,3.767,7.638,4.054,11.394.356,4.655-2.722,7.083.17,11.852,2.257,3.721,6.208,6.66,8.866,10.154,5.3,6.973,8.814,13.2,10.051,22.026,1.623,11.582-8.865,14.647-10.961,24.578-2.245,10.663-1.1,20.539-9.317,28.5a16.539,16.539,0,0,1-1.977,1.642" fill="none" stroke="#be894a" stroke-miterlimit="10" stroke-width="1.118"/>
    <path id="Path_2895" data-name="Path 2895" d="M938.427,246.312c4.065,8.414,11.533-4.07,14.529-4.588,3.973-.686,9.816,8.148,12.863,10.3,2.017,1.428,5.849,2.429,5.5,4.979" fill="none" stroke="#be894a" stroke-miterlimit="10" stroke-width="1.118"/>
    <path id="Path_2896" data-name="Path 2896" d="M699.5,302.356c-14.947.332-33.514-12.108-48.273-7.715" fill="none" stroke="#be894a" stroke-miterlimit="10" stroke-width="1.118"/>
    <path id="Path_2897" data-name="Path 2897" d="M898.332,309.693c12.439,1.4,23.2,5.491,36.828,3,13.665-2.5,24.523-3.5,38.162,1.537" fill="none" stroke="#be894a" stroke-miterlimit="10" stroke-width="1.118"/>
    <path id="Path_2898" data-name="Path 2898" d="M863.472,151.063c3.167,8.517-1.713,20.254-5.067,28.237" fill="none" stroke="#be894a" stroke-miterlimit="10" stroke-width="1.118"/>
    <path id="Path_2899" data-name="Path 2899" d="M856.812,386.152c-2.094,9.5,2.035,23.414,1.715,33.5-.339,10.572.249,21.018-3.217,31.072" fill="none" stroke="#be894a" stroke-miterlimit="10" stroke-width="1.118"/>
    <path id="Path_2900" data-name="Path 2900" d="M819.1,228.482c-1.108-11.946-8.538-17.1,7.1-17.547,6.436-.183,7.3-4.443,9.052,4.468.513,2.612-2.428,7.579-3.01,10.4" fill="none" stroke="#be894a" stroke-miterlimit="10" stroke-width="1.118"/>
    <path id="Path_2901" data-name="Path 2901" d="M800.667,291.375c-2.4-.526-5.371-1.054-7.736.3-6.068,3.478-.235,4.015-2.526,8.086-4.085,7.256-7.953,7.778-3.821,18.11" fill="none" stroke="#be894a" stroke-miterlimit="10" stroke-width="1.118"/>
    <path id="Path_2902" data-name="Path 2902" d="M717.179,176.169c-1.566-4.02-7.2-7.892-11.531-4.3-5.965,4.954,2.908,7.846,1.637,12.053-1.966,6.5-20.6,13.169-9.182,21.861" fill="none" stroke="#be894a" stroke-miterlimit="10" stroke-width="1.118"/>
    <path id="Path_2903" data-name="Path 2903" d="M928.59,284.139c12.735-5.2,18.9-5.271,27.572-16.834" fill="none" stroke="#be894a" stroke-miterlimit="10" stroke-width="1.118"/>
    <path id="Path_2904" data-name="Path 2904" d="M794.545,266.229c5.82-9.98-5.338-12.988-4.419-21.912,1.138-11.028,8.691-6.2,13.133.511,13.522-14.912,13.653,8.384,11.9,17.857" fill="none" stroke="#be894a" stroke-miterlimit="10" stroke-width="1.118"/>
  </g>
</svg>
