<svg xmlns="http://www.w3.org/2000/svg" width="6.445" height="7.2" viewBox="0 0 6.445 7.2">
  <path id="Path_4797" data-name="Path 4797" d="M4-13.14a.67.67,0,0,1,.594.261.9.9,0,0,1,.18.513.846.846,0,0,1-.1.378q-.1.2-.216.495a6.837,6.837,0,0,0-.234.738,5.587,5.587,0,0,0-.153,1.107A4.561,4.561,0,0,0,5-10.4q.342-.378.576-.666a6.224,6.224,0,0,1,.414-.468.633.633,0,0,1,.468-.18.674.674,0,0,1,.567.243.823.823,0,0,1,.189.513.688.688,0,0,1-.108.405.806.806,0,0,1-.27.243.735.735,0,0,1-.333.081,4.571,4.571,0,0,0-.531.063,6.839,6.839,0,0,0-.783.189A7.265,7.265,0,0,0,4.1-9.54,7.265,7.265,0,0,0,5.193-9.1a6.839,6.839,0,0,0,.783.189,4.571,4.571,0,0,0,.531.063.735.735,0,0,1,.333.081.806.806,0,0,1,.27.243.688.688,0,0,1,.108.405.823.823,0,0,1-.189.513.674.674,0,0,1-.567.243.633.633,0,0,1-.468-.18A6.224,6.224,0,0,1,5.58-8.01Q5.346-8.3,5-8.676a4.561,4.561,0,0,0-.936-.756,5.587,5.587,0,0,0,.153,1.107,5.6,5.6,0,0,0,.243.738q.126.3.225.495a.846.846,0,0,1,.1.378.9.9,0,0,1-.18.513.67.67,0,0,1-.594.261A.67.67,0,0,1,3.42-6.2a.9.9,0,0,1-.18-.513.846.846,0,0,1,.1-.378q.1-.2.216-.495a6.837,6.837,0,0,0,.234-.738,5.587,5.587,0,0,0,.153-1.107,4.561,4.561,0,0,0-.936.756q-.342.378-.576.666a6.224,6.224,0,0,1-.414.468.633.633,0,0,1-.468.18.674.674,0,0,1-.567-.243.823.823,0,0,1-.189-.513A.688.688,0,0,1,.9-8.523a.806.806,0,0,1,.27-.243.715.715,0,0,1,.324-.081,4.6,4.6,0,0,0,.522-.063A7.244,7.244,0,0,0,2.808-9.1a7.076,7.076,0,0,0,1.1-.441A7.916,7.916,0,0,0,2.8-9.981a6.839,6.839,0,0,0-.783-.189,4.571,4.571,0,0,0-.531-.063.735.735,0,0,1-.333-.081.806.806,0,0,1-.27-.243.688.688,0,0,1-.108-.405.823.823,0,0,1,.189-.513.674.674,0,0,1,.567-.243.633.633,0,0,1,.468.18,6.224,6.224,0,0,1,.414.468q.234.288.576.666a4.561,4.561,0,0,0,.936.756,6.161,6.161,0,0,0-.144-1.107,4.911,4.911,0,0,0-.234-.738q-.126-.3-.225-.495a.846.846,0,0,1-.1-.378.9.9,0,0,1,.18-.513A.67.67,0,0,1,4-13.14Z" transform="translate(-0.773 13.14)" fill="#e6546f"/>
</svg>
