<svg xmlns="http://www.w3.org/2000/svg" width="370.238" height="248.228" viewBox="0 0 370.238 248.228">
  <g id="Group_4185" data-name="Group 4185" transform="translate(369.634 247.649) rotate(180)" opacity="0.189">
    <path id="Path_3819" data-name="Path 3819" d="M.092,0,.762.277.67.5,0,.224Z" transform="translate(212.498 22.225)" fill="none" stroke="#f5637e" stroke-width="1" fill-rule="evenodd"/>
    <path id="Path_3820" data-name="Path 3820" d="M0,0" transform="translate(313.009 24.354)" fill="none" stroke="#f5637e" stroke-width="1" fill-rule="evenodd"/>
    <path id="Path_3821" data-name="Path 3821" d="M36.721,7.267c6.232.789,3.971,6.749,1.532,10.483-2.994,4.584-3.921,9.1-5.2,14.616-.491,2.123-.828,4.588-1.96,6.435-4.457-1.5-4.509.495-5.8,3.655-1.2,2.954-4.321,3.775-5.3,6.8-.516,1.6-.092,3.235-.187,4.85-9.12-.323-20.456-7.3-19.785-17.418C.354,31.776,2.158,27.255,2.336,22.2c.207-5.74,1.6-10.39,5.753-14.567C11.9,3.8,17.041,2.491,21.691,0" transform="translate(130.902 95.842)" fill="none" stroke="#f5637e" stroke-miterlimit="10" stroke-width="1.185"/>
    <path id="Path_3822" data-name="Path 3822" d="M23.037,36.688c2.849,1.929,3.286-1.589,4.413-3.335,1.756-2.728,3.8-2.71,6.076-4.662,2.9-2.488,1.229-3.68,1.287-6.817.055-2.845,1.76-5.027,1.667-7.981-.023-.756-.087-3.8-1-4.156-1.044-.408-1.547,1.686-2.369,1.575-1.928-.259-2.8-2.147-4.358-3.683-.6-.592-1.55-.081-2.209-.966-.71-.953-.176-2.946-.773-4.085S24.124-.167,22.612.014C21.294.169,21.418,1.95,20.6,2.179c-1.2.335-2.151-.644-3.12-.451-1.862.371-.983.59-2.49,1.4-1.75.939-.528,1.636-3.07,1.42-1.251-.1-2.767-1.434-4.066-1.782C7.868,8.082,3.519,3.938,1.127,6.73c-2.146,2.5-.725,7.715.146,10.487,1.8,5.741,7.259,14,12.7,16.784,2.77,1.418,6.644,2.947,9.8,2.886" transform="translate(142.771 65.402)" fill="none" stroke="#f5637e" stroke-miterlimit="10" stroke-width="1.185"/>
    <path id="Path_3823" data-name="Path 3823" d="M0,7.753c2.165,2.1,3.588,7.124,6.7,7.839,2.211.512,2.981-1.22,4.761-1.864,2.026-.732,2.117-.252,4.132-.132,10.122.587-2.082-9.841-5.293-12.256C7.219-.978,4.1.088.876,1.705" transform="translate(170.908 104.38)" fill="none" stroke="#f5637e" stroke-miterlimit="10" stroke-width="1.185"/>
    <path id="Path_3824" data-name="Path 3824" d="M.066,0C.146.108.122.191,0,.246" transform="translate(177.409 119.697)" fill="none" stroke="#f5637e" stroke-miterlimit="10" stroke-width="1.185"/>
    <path id="Path_3825" data-name="Path 3825" d="M15,0c1.221,4.975,4.441,9.426,5.893,14.453,1.325,4.6,1.476,9.832,1.911,14.576.22,2.4.411,5.377-2.8,3.5-.825,4.757-1.348,6.058-4.3,9.657-1.32,1.612-4.271,6.335-7.283,5.168-1.865-.72-1.481-4.035-2.173-5.534-.743-1.6-2.226-2.587-2.719-4.332-.566-2.007.566-3.939.229-5.928-.364-2.137-2.13-3.866-2.706-5.964C.109,22.162.139,17.676,0,14.087" transform="translate(162.478 119.697)" fill="none" stroke="#f5637e" stroke-miterlimit="10" stroke-width="1.185"/>
    <path id="Path_3826" data-name="Path 3826" d="M0,0C8.373,1.078,17.248,1.21,25.741,2.082a28.076,28.076,0,0,1,5.866,1.095" transform="translate(195.63 113.681)" fill="none" stroke="#f5637e" stroke-miterlimit="10" stroke-width="1.185"/>
    <path id="Path_3827" data-name="Path 3827" d="M16.68,0c5.841,5.6,8.758,10.051,16.6,13.249,5.212,2.127,10.771,7.474,7.174,13.536-1.661,2.8-3.544,4.16-4.628,7.452-1.238,3.756-2.189,5.309-5.49,7.618-5.525,3.866-10.045,7.917-16.67,9.724C5.715,53.752,3.453,47.612.845,41.324Q.423,40.307,0,39.291" transform="translate(176.495 124.534)" fill="none" stroke="#f5637e" stroke-miterlimit="10" stroke-width="1.185"/>
    <path id="Path_3828" data-name="Path 3828" d="M10.293.175c1.745.191,5.094-.812,6.407.569.847.891,1.144,7.135,1.115,8.459-.082,3.814-.793,2.315-3.928,2.939-2.863.568-3.907,1.61-6.969.531C4.142,11.694,2.427,9.6,0,8.086" transform="translate(178.538 112.034)" fill="none" stroke="#f5637e" stroke-miterlimit="10" stroke-width="1.185"/>
    <path id="Path_3829" data-name="Path 3829" d="M0,0C3.5,1.147,6.936,2.847,10.551,3.634c3.219.7,6.434.585,9.2,2.649a11.94,11.94,0,0,1,3.3,4.194c3.912.022,3.1,3.451,3.973,5.595,1.109,2.714,3.209,5.29,4.355,8.165,1.58,3.973,2.795,3.249,5.782,5.394,2.717,1.949,2.691,4.671,6.12,5.8,2.127.7,5.939,2.03,8.044,2.118.407-1.432,1.779-3.9,3.624-3.6,2.377.4,2.042,3.963,2.209,5.719.357,3.738,1.691,10.718-4.537,8.719-3.476-1.116-5.886-5.6-9.011-7.527-3.373-2.08-7.134-3.575-10.572-5.607-3.642-2.15-7.568-5.12-11.644-6.331" transform="translate(196.393 120.438)" fill="none" stroke="#f5637e" stroke-miterlimit="10" stroke-width="1.185"/>
    <path id="Path_3830" data-name="Path 3830" d="M0,0C4.386,1.1,7.094,3.869,11,6.194a48.85,48.85,0,0,1,10.464,8.07,19.432,19.432,0,0,1,4.264,6.026" transform="translate(216.79 151.578)" fill="none" stroke="#f5637e" stroke-miterlimit="10" stroke-width="1.185"/>
    <path id="Path_3831" data-name="Path 3831" d="M0,0C3.23,2.5,5.644,7.126,9.008,8.928c3.431,1.837,7.3,2.876,10.758,4.833,7.2,4.085,12.63,11.06,17.878,17.126,1.491,1.723,2.383,3.93,4.378,5.093,1.6.925,3.691,1,5.226,2.021" transform="translate(215.735 152.845)" fill="none" stroke="#f5637e" stroke-miterlimit="10" stroke-width="1.185"/>
    <path id="Path_3832" data-name="Path 3832" d="M13.312,0A83.4,83.4,0,0,1,29.657,9.12c2.755,1.921,4.937,1.7,8.12,2.368,3.157.658,4.822,2.324,7.44,3.822C50,18.041,54.8,17.963,59.429,21.665A64.275,64.275,0,0,0,71.872,29.21c4.9,2.427,11.4,7.309,9.16,13.819-4.014-.711-4.24.945-6.479,3.349-3.657,3.927-4.146-1.242-8.366-.272-2.342.539-2.5,3.882-5.182,4.862-2.259.823-5.5.734-7.873.742A63.1,63.1,0,0,1,30.56,47.566C23.3,44.877,19.1,41.022,13.935,35.4,9.905,31.006,6.156,25.664,1.475,22,.994,21.621.5,21.256,0,20.905" transform="translate(211.482 139.038)" fill="none" stroke="#f5637e" stroke-miterlimit="10" stroke-width="1.185"/>
    <path id="Path_3833" data-name="Path 3833" d="M0,0C2.885,3.154,6.431,5.279,9.588,8.1c3.572,3.188,4.881,7.262,7.529,11.069,2.521,3.634,6.681,5.252,9.446,8.6,3.164,3.837,3.3,8.623,4.111,13.3.753,4.369,7.606,24.085-3.179,17.841-2.965-1.716-5.3-5.594-7.27-1.618-1.255,2.549.726,8.081-3.361,8.737C9.253,67.254,5.968,47.37,2.479,43.09A24.009,24.009,0,0,0,.53,41" transform="translate(210.679 162.866)" fill="none" stroke="#f5637e" stroke-miterlimit="10" stroke-width="1.185"/>
    <path id="Path_3834" data-name="Path 3834" d="M22.53,0c4.739,3.171,3.851,8.433,4.928,13.408.5,2.328,2.808,17.513-1.608,16.744-1.714-.3-4.2-5.762-6.14-6.944-.916,3.686,1.067,9.045-4.523,8.949-1.515,3.578,10.67,4.724,5.529,9.251-1.35,1.188-4.79-.123-6.391-.47-3.946-.848-4.608.681-8.2,1.157-2.635.347-4.2-1.47-6.129-2.966" transform="translate(228.935 189.387)" fill="none" stroke="#f5637e" stroke-miterlimit="10" stroke-width="1.185"/>
    <path id="Path_3835" data-name="Path 3835" d="M16.624,0a36.184,36.184,0,0,0,3.471,16.935c3.314,6.206,6.778,6.756,2.777,14.018A87.725,87.725,0,0,0,17.4,44.139c-1.849,5.181-5.909,4.513-7.885,9.5-1.165,2.94-1.267,4.928-4.518,4.3A11.725,11.725,0,0,1,0,54.551" transform="translate(192.509 164.488)" fill="none" stroke="#f5637e" stroke-miterlimit="10" stroke-width="1.185"/>
    <path id="Path_3836" data-name="Path 3836" d="M12.483,0c-.97,5.093,3.833,8.78,4.153,13.6.267,4-.477,10.407-3.116,13.572-1.482,1.778-8.689,5.7-8.078,1.279.252-1.823,3.6-2.642,3.7-4.845.1-2.345-2.062-2.9-3.579-4.143C1.711,16.32.8,11.994,0,7.193" transform="translate(190.365 169.087)" fill="none" stroke="#f5637e" stroke-miterlimit="10" stroke-width="1.185"/>
    <path id="Path_3837" data-name="Path 3837" d="M3.435,0c3.1,2.388,4.477,3.385,2.289,7.28-1.2,2.133-2.568,7.351-4.319,8.58C-.428,14.213,0,4.781.151,2.5" transform="translate(200.562 195.907)" fill="none" stroke="#f5637e" stroke-miterlimit="10" stroke-width="1.185"/>
    <path id="Path_3838" data-name="Path 3838" d="M23.119,0c-4.113,4.542-5.126,10.18-4.939,16.216.205,6.638,1.5,11.33-.427,17.756-2.23,7.447,4.96,9.6,10.071,12.781,7.592,4.723,2.3,12.077-.042,18.161-1.363,3.543-2.959,6.882-3.845,10.57-.537,2.22-.785,8.228-2.375,9.837a3.572,3.572,0,0,1-1.768,1.211c-2.333-1.269-2.347-5.06-4.36-5.979-2.491-1.139-3.468,2.509-5.428,1.038-.909-.684-.081-3.237-1.359-3.886-1.43-.728-1.96.948-3.213,1.042-3.594.268-3.426-1.253-4.071-4.74C.951,71.763-.465,68.4.155,66.184c.742-2.665,4.033-4.311,5.322-6.809C8.141,54.2,4.49,49.386,7.465,44.262c1.72-2.964,2.97-4.575,2.308-8.178-.518-2.82-1.673-6.065-1.5-9.045" transform="translate(141.748 148.455)" fill="none" stroke="#f5637e" stroke-miterlimit="10" stroke-width="1.185"/>
    <path id="Path_3839" data-name="Path 3839" d="M0,0A91.444,91.444,0,0,0,7.193,21.3c2.869,6.273,5.769,13.279,6.056,20.262.314,7.637-4.191,12.048-8.239,17.882C1.557,64.421,1.282,69.888.954,75.794c-.163,2.9-1.6,16.592,3.765,14.573,2.273-.858,4.137-5.871,5.508-7.72a20.755,20.755,0,0,1,7.233-6.208c6.276-3.364,8.3-6.163,8.876-13.508.445-5.658,1.235-11.836.358-17.475A29.013,29.013,0,0,0,18.93,30.137c-4.384-4.8-8.607-9.293-10.579-15.662-.412-1.333-.713-2.708-.991-4.073" transform="translate(165.939 156.476)" fill="none" stroke="#f5637e" stroke-miterlimit="10" stroke-width="1.185"/>
    <path id="Path_3840" data-name="Path 3840" d="M66.819,0c-3.895,3.946-5.911,11.711-7.681,16.892-1.572,4.6-3.973,8.272-6.2,12.419-1.383,2.573-1.874,2.92-4.471,4.206a26.837,26.837,0,0,0-6.185,4.369,14.511,14.511,0,0,1-6.2,3.305c-3.026.983-3.133,1.941-5.543,4.149-2.333,2.138-4.894,2.585-7.706,3.558-4.639,1.609-8.987,4.366-13.59,6.238-1.986-2.8-13-.141-7.922-5.841,1.507-1.69,4.14-2.8,5.836-4.524a84.8,84.8,0,0,1,7.524-6.292c2.459-1.986,4.415-4.552,7.269-6.01,2.891-1.483,6.16-2,9.077-3.517,5.549-2.879,10.83-5.779,14.44-11.008,3.3-4.776,8.18-7.7,7.913-13.935" transform="translate(97.187 145.863)" fill="none" stroke="#f5637e" stroke-miterlimit="10" stroke-width="1.185"/>
    <path id="Path_3841" data-name="Path 3841" d="M33.041,0c-2.63,5.592.828,10.93-.269,16.5-1.028,5.235-5.837,10.854-8.254,15.625-4.965,9.812-4.953-5.274-9.754-4.466-3.18.535-2.566,4.476-6.01,4.231-1.173-.081-1.5-1.8-3.057-1.444-1.4.325-1.5,2.651-2.646,3.078C-2.514,35.6,1.191,21.03,1.418,18.229" transform="translate(113.987 178.727)" fill="none" stroke="#f5637e" stroke-miterlimit="10" stroke-width="1.185"/>
    <path id="Path_3842" data-name="Path 3842" d="M33.694,7.269c-6.181-.586-10.226-3.137-15.589-6.091-7.328-4.043-5.34,3.542-11.62,4.45-2.977.427-4.9.052-6.485,3.389a1.09,1.09,0,0,1,.059.4c7.284-1.763,16-2.9,23.416-.168,1.734.641,2.906,1.578,4.557,2.1" transform="translate(109.779 70.747)" fill="none" stroke="#f5637e" stroke-miterlimit="10" stroke-width="1.185"/>
    <path id="Path_3843" data-name="Path 3843" d="M19.112,11.143c-2.4.665-8.417-3.764-10.653-5.447C5.922,3.789,2.579-.019,0,0" transform="translate(123.633 65.23)" fill="none" stroke="#f5637e" stroke-miterlimit="10" stroke-width="1.185"/>
    <path id="Path_3844" data-name="Path 3844" d="M33.326,3.746c-5.256.042-8.579-5.16-13.979-3.371C13,2.48,9.216,1.142,2.767.812c-7.684-.392,2.834,4.141,5.1,5.6A126.587,126.587,0,0,0,22.28,14.621c5.755,2.737,12.186,1.338,17.754,4.2" transform="translate(88.87 67.897)" fill="none" stroke="#f5637e" stroke-miterlimit="10" stroke-width="1.185"/>
    <path id="Path_3845" data-name="Path 3845" d="M25.584.046C21.29-.206,15.717.525,12.5,3.482,10.708,5.129,9.72,7.1,7.54,8.428,5.847,9.457,1.161,10.061.24,11.857c-1.671,3.261,5.869,7.03,8.129,8.48,1.34.856,3.408,4.384,4.719,4.6,2.451.407,3.571-3.594,4.9-5,3.609-3.84,8.235-6.875,11.927-10.845" transform="translate(118.569 81.691)" fill="none" stroke="#f5637e" stroke-miterlimit="10" stroke-width="1.185"/>
    <path id="Path_3846" data-name="Path 3846" d="M27.02.055c-5.768-.9-6.72,9.587-10.011,12.212-2.369,1.886-5.473,1.614-8.128,2.552-2.885,1.024-3.3,2.836-5.4,4.868-2.251,2.175-5.113,3.142-2.344,6.969,1.607,2.223,5.336,1.873,5.345,4.939,0,2.28-5.423,5.346-2.189,7.5,1.9,1.262,6.388-2.048,8.971-1.529,1.118.225,5.137,1.582,5.332,3.017.22,1.592-2.067,1.974-2.957,2.952-3.046,3.339-.677,5.159,3.194,3.443,3.24,3.3,1.392,4.745,6.783,3.47,3.643-.864,4.748-2.683,7.565-5.139a17.093,17.093,0,0,1,3.9-2.788" transform="translate(99.472 101.706)" fill="none" stroke="#f5637e" stroke-miterlimit="10" stroke-width="1.185"/>
    <path id="Path_3847" data-name="Path 3847" d="M15.845,0c-1.919,2.275-4.4,3.835-6.2,6.5-1.238,1.837-1.955,3.841-3.57,5.37-2.005,1.9-3.685,1.828-4.619,4.9A44.581,44.581,0,0,0,.408,23.06c-.267,1.9.535,5.16-.408,6.511" transform="translate(123.902 146.929)" fill="none" stroke="#f5637e" stroke-miterlimit="10" stroke-width="1.185"/>
    <path id="Path_3848" data-name="Path 3848" d="M41.892,2.867c-6.2-4.514-9.651-3.211-15.651.547C20.962,6.72,14.464,5.752,8.519,6.969,4.316,7.827-4,8.528,2.245,14.3c4.385,4.062,13.623,3.627,19.1,2.248,6.377-1.6,9.271-9.87,16.437-8.268" transform="translate(82.865 98.955)" fill="none" stroke="#f5637e" stroke-miterlimit="10" stroke-width="1.185"/>
    <path id="Path_3849" data-name="Path 3849" d="M46.571,1.094c-7.733,3.347-12.336.135-19.9-.984-3.866-.573-6.913,1.272-10.551,1.677-4.413.491-6.55.125-9.683,3.327-.718.736-.61,1.617-1.619,2.255-.959.6-2.493-.167-3.435.5-1.827,1.289-2.043,3.294.542,4-4.413,4.51,2.841,6.266,5.911,6.749" transform="translate(81.088 87.772)" fill="none" stroke="#f5637e" stroke-miterlimit="10" stroke-width="1.185"/>
    <path id="Path_3850" data-name="Path 3850" d="M25.749,1.7A7.66,7.66,0,0,0,21.74.78C19.777.765,18.816,2.173,17.455,2.3,15.829,2.461,9.125-1.371,8.541.531c-.294.957,2.792,3.147,3.334,3.913-1.426,2.075-4.269,1.5-6.142,2.5C5.062,7.3,4.9,8.316,3.66,8.932c-1.086.543-2.54.279-3.66.9,1.293,4.244,7.65,7.185,10.812,5.328" transform="translate(77.653 76.701)" fill="none" stroke="#f5637e" stroke-miterlimit="10" stroke-width="1.185"/>
    <path id="Path_3851" data-name="Path 3851" d="M22.335,0c-2.7,2.252-6.7.456-9.766.2A19.619,19.619,0,0,0,3.647,1.44C1.869,2.2.745,2.656,0,4.479c1.783.891,4.416.349,6.281.136.2,2.049-1.25,3.226-2.2,4.781,2.834,3.6,7.755-2.483,9.793,2,.9,1.986-1.961,2.733,1.033,3.112,1.473.184,4.024-2.183,5.695-2.3,1.741-.121,3.868.972,4.478.2" transform="translate(59.733 100.842)" fill="none" stroke="#f5637e" stroke-miterlimit="10" stroke-width="1.185"/>
    <path id="Path_3852" data-name="Path 3852" d="M34.693,6.824c-2.8,1.7-6.749-1.87-9.578-2.695C22.235,3.288,17.587.1,14.891,0,12.837-.073,11.953,1.733,10.209,2.5c-1.772.779-3.575.464-5.4.965C.148,4.741-2.033,8.239,2.464,11.4c2.264,1.593,10.272,5.831,2.6,7.594.927,7.5,7.666-.053,11.543,1.253.257,2,2.769,1.965,3.72,2.153" transform="translate(89.374 163.827)" fill="none" stroke="#f5637e" stroke-miterlimit="10" stroke-width="1.185"/>
    <path id="Path_3853" data-name="Path 3853" d="M10.135.289C7.706-.271,2.377-.1,0,1.567,2.22,4.728,7.762,4.839,8.933,7.921c.854,2.247-1.977,9.136,3.77,5.907" transform="translate(84.843 184.25)" fill="none" stroke="#f5637e" stroke-miterlimit="10" stroke-width="1.185"/>
    <path id="Path_3854" data-name="Path 3854" d="M17.3,0c-1.649,1.706-2.32,4.117-3.872,5.872-1.739,1.967-4.232,2.725-6.1,4.6-2.4,2.4-1.361,4.074-2.59,6.714C3.867,19.058-.344,20.633.023,22.8c.49,2.926,6.672,2.224,8.1,4.795-2.063,2.153-5.694,2.234-7.3,4.778-1.993,3.143.317,4.584,3.469,5.068,4.173.641,3.835-2.034,6.975-3.908,2.316-1.378,4.642-1.675,7.074-3.541,2.221-1.7,3.948-3.827,6.126-5.5" transform="translate(82.328 116.532)" fill="none" stroke="#f5637e" stroke-miterlimit="10" stroke-width="1.185"/>
    <path id="Path_3855" data-name="Path 3855" d="M15.882,5.137C13.71,6.77,11.606,9.207,9.059,10.227c-2.313.924-5.44-.622-7.393.4-5.606,2.929,4.547,6.11,6.806,6.784,3.531,1.051,10.866,1.583,14.514.669,4.883-1.224,4.9-7.563,9.336-9.576,2.6-1.177,5.126-.576,7.3-2.639,1.9-1.8,2.388-4.385,4.778-5.862" transform="translate(71.15 149.193)" fill="none" stroke="#f5637e" stroke-miterlimit="10" stroke-width="1.185"/>
    <path id="Path_3856" data-name="Path 3856" d="M19.639,0c-1.634.352-3.347,1.206-4.979,1.638-.023.086-.049.176-.072.263a20.042,20.042,0,0,0,1.933,1.323c-2.678,1.016-4.311,3.329-6.85,4.721C6.156,9.868,4.328,9.139.565,8.372c-1.535,2.131.43,2.4,1.5,3.712.48.583,1.712.463,2.146,1.2s-.838,1.357-.54,2.045c1.089,2.532,3.631,4.482,5.762,4.662" transform="translate(62.851 139.856)" fill="none" stroke="#f5637e" stroke-miterlimit="10" stroke-width="1.185"/>
    <path id="Path_3857" data-name="Path 3857" d="M15.12,0c-.98.055-2.79,1.921-3.356,3.152-1.144,2.5-.038,2.638-2.218,4.733C7.785,9.572,7.335,9.9,6.858,12.105c-.487,2.246.807,3.172-1.471,4.769C3.9,17.923,1.489,17.5,0,18.516c.471.169,1.067.853,1.754,1.013-4.664,4.059,11.621,4.369,13.122,4.664,1.267.246,2.825,1.161,3.768,1.135" transform="translate(59.036 115.827)" fill="none" stroke="#f5637e" stroke-miterlimit="10" stroke-width="1.185"/>
    <path id="Path_3858" data-name="Path 3858" d="M18.788,0c-.974,1.278-3.429,2.406-4.909,3.046-2.083.9-3.813,1.96-5.438,2.8C5.287,7.484,1.094,10.329.185,14.067c-.822,3.39,1.191,3.762,4.13,3.415-2.107,4.411,7.063,4.993,8.966,4.971" transform="translate(46.491 111.425)" fill="none" stroke="#f5637e" stroke-miterlimit="10" stroke-width="1.185"/>
    <path id="Path_3859" data-name="Path 3859" d="M149.744,46.674c-3.072-2.663-10.34-3.656-14.329-4.16-4.6-.58-8.736,2.151-13.442,1.42-2.651-.411-4.287-1.15-6.971-.48-2.454.617-3.809,1.621-6.466,1.382-5.082-.456-10.291-.765-15.4-1.282a79.283,79.283,0,0,0-14.645-.3c-5.567.438-11.163-1.1-16.535-.4A32.7,32.7,0,0,1,42.9,39.327c-5.86-2.883-10.622-7.2-17.166-8.683-5.753-1.3-7.578-2.638-11.134-7.408-3.316-4.447-8.238-6.113-12.16-9.793A26.573,26.573,0,0,1,0,10.717c3.853-1.169,6.735-3.784,10.445-5.1C15.183,3.943,20.663,4.381,25.61,3.8,38.352,2.305,51.253,1.778,64.048.533c7.943-.77,15.109-1.185,22.471,2.23a78.8,78.8,0,0,1,16.064,10c7.808,6.217,17.307,10.638,26.016,15.5,7.632,4.255,13.985,10.434,20.872,15.768.6.463,1.194.928,1.795,1.389" transform="translate(14.183 20.294)" fill="none" stroke="#f5637e" stroke-miterlimit="10" stroke-width="1.185"/>
    <path id="Path_3860" data-name="Path 3860" d="M63.413,53.219C55.145,49.718,48.378,43,39.24,41.923c-4.007-.476-7.709-.445-11.447-2.2-3.647-1.711-6.884-4.283-10.439-6.191C10.94,30.089,2.247,26.061.259,18.2-1.635,10.72,7.273,5.809,13.3,4.229c6.113-1.6,12.769-2.973,19.02-3.973.6-.1,1.216-.18,1.826-.256" transform="translate(0 48.787)" fill="none" stroke="#f5637e" stroke-miterlimit="10" stroke-width="1.185"/>
    <path id="Path_3861" data-name="Path 3861" d="M14.74,27.873c3.456-4.468,1.732-9.984,6.01-14.325C22.181,12.1,33.154,3.536,29.359.776c-2.017-1.467-3.941,3.431-5.822,3.581-1.374.107-3.762-1.945-5.144-2.506C12.336-.592,9.6-1.631,7.785,5.3c-.93,3.535-2.979,4.332-5.03,7.127-1.641,2.24-1.96,5-2.756,7.6" transform="translate(178.167 84.276)" fill="none" stroke="#f5637e" stroke-miterlimit="10" stroke-width="1.185"/>
    <path id="Path_3862" data-name="Path 3862" d="M17.081,38.282c-.64-5.689,1.268-11.481,4.336-16.232,3.171-4.915,6.1-7.26,2.12-12.068-1.923-2.319-1.527-2.659-2.052-5.951-.7-4.383-.541-2.366-3.345-2-1.13.146-1.149,1.012-2.487.639C14.624,2.38,14.394.4,13.441.132,10.34-.743,11,2.959,9,4.631c-2.182,1.824-3.688-.2-5.792,1.116-1.753,1.1-1.975,4.8-3.207,6.5" transform="translate(167.574 54.312)" fill="none" stroke="#f5637e" stroke-miterlimit="10" stroke-width="1.185"/>
    <path id="Path_3863" data-name="Path 3863" d="M17.9,2.607c-1.916-5.2-5.256-.994-8.521-.964-.629,0-.791-1.755-1.643-1.637C6.516.174,6.64.835,5.77,1.237c-1.552.72-1.618,3.408-3.817,1.23C-.292,3.433-.125,5.591.169,7.564" transform="translate(160.015 53.952)" fill="none" stroke="#f5637e" stroke-miterlimit="10" stroke-width="1.185"/>
    <path id="Path_3864" data-name="Path 3864" d="M.882,26.468c3.24-3.167,9.537-3.636,13.784-4.867,2.609-.755,5.336-.871,7.556-2.646,3.007-2.4,2.14-3.5,1.659-6.357-.34-2.008.5-3.619.321-5.63-.277-3.1-1.312-1.779-3.731-3.129C18.789,2.894,17.436-.023,15.447,0c-1.91.023-3.3,2.976-5.223,3.479-2.843.747-4.274-.95-6.705,1.834C1.941,7.118,1.593,9.707,0,11.556" transform="translate(196.385 74.566)" fill="none" stroke="#f5637e" stroke-miterlimit="10" stroke-width="1.185"/>
    <path id="Path_3865" data-name="Path 3865" d="M28.011,30.561c3.377-2.627,9.263-4.174,11.909-7.443,3.591-4.432-1.678-5.741-3.631-8.558-1.024-1.473-.038-4.3-1.647-5.1-.754-.373-4.616,1.217-5.747,1.257-4.022.139-2.449-1.3-4.909-2.921-1.377-.907-3.543.289-4.707-.91-1.494-1.546,1.311-4.586-.245-5.87C17.321-.4,14.96,3.737,13.874,0,7.243,1.752,4.036,3.662,0,9.511" transform="translate(192.654 56.334)" fill="none" stroke="#f5637e" stroke-miterlimit="10" stroke-width="1.185"/>
    <path id="Path_3866" data-name="Path 3866" d="M0,0C9.662.612,21.007-.6,30.424,1.683,35.39,2.89,40,5.3,44.995,6.41c5.4,1.2,10.959,2.07,16.443,3.027,2.44.428,4.809,1.092,7.218,1.493,2.287.378,5.164-.358,7.214.72-7.825,4.246,6.5,9.757,6.322,13.03-.091,1.707-3.268,4.143-4.073,6.054-2.193,5.2-1.783,2.833-6.111,1.686-2.373-.631-3.871.885-6.4.027-3.264-1.108-4.3-5.134-7.329-6.4-2.945-1.232-5.732.267-8.4-2.152-2.382-2.16-2.644-4.308-5.776-5.735-3.016-1.37-5.349-2.1-7.918-4.408-2.008-1.8-3.632-4.078-6.205-5.124" transform="translate(196.195 107.809)" fill="none" stroke="#f5637e" stroke-miterlimit="10" stroke-width="1.185"/>
    <path id="Path_3867" data-name="Path 3867" d="M0,3.556c4.569,1.716,7.782-.878,12.035-1.809C15.917.9,19.618,1.1,23.48,1.172c4.132.08,5.65-2.963,9.335.452,2.674,2.477,4.325,6.09,8.028,7.307C44.6,10.17,49.5,9.6,50.291,15.009a8.359,8.359,0,0,0-3.237.678c.207,1.449,1.188,3.783-.2,4.805-1.47,1.081-3.986-1.126-5.656-.655,0,.278.2.571.2.848-3.206.64-6.688-3.217-9.957-3.842-3.38-.648-6.532-.666-9.82-1.722" transform="translate(251.686 147.647)" fill="none" stroke="#f5637e" stroke-miterlimit="10" stroke-width="1.185"/>
    <path id="Path_3868" data-name="Path 3868" d="M0,3.843C5.2,6.254,9.57,1.569,14.231.7A29.6,29.6,0,0,1,22.776.122c3.99.5,3.388,1.634,4.811,4.328C28.96,7.042,31.781,8.159,33.2,10.6c-1.471,1.727-3.723,1.175-5.774,1.411-2.746.314-2.861.664-4.568,2.322-1.764,1.716-1.26,2.023-3.915,2.507a55.536,55.536,0,0,0-5.656,1.029c-1.822.514-3.464,1.038-5.228.251" transform="translate(276.7 131.305)" fill="none" stroke="#f5637e" stroke-miterlimit="10" stroke-width="1.185"/>
    <path id="Path_3869" data-name="Path 3869" d="M28.751,3.571c-3.215.968-8.921.235-12.616.423A22.4,22.4,0,0,1,5.39,2.3C3.525,1.512,1.784.721,0,0" transform="translate(217.692 128.25)" fill="none" stroke="#f5637e" stroke-miterlimit="10" stroke-width="1.185"/>
    <path id="Path_3870" data-name="Path 3870" d="M29.058,4.124C20.985,4.87,12.851,1.7,4.573.3A20.5,20.5,0,0,0,0,.013" transform="translate(215.792 126.342)" fill="none" stroke="#f5637e" stroke-miterlimit="10" stroke-width="1.185"/>
    <path id="Path_3871" data-name="Path 3871" d="M0,2.675C5.512,1.969,11.237-.081,16.759,0A63.991,63.991,0,0,1,26.514,1.13c3.948.7,4.044,1.283,5.617,3.968.707,1.207,3.486,3.367,3.891,4.507.837,2.354-1.9,2.71-2.1,4.945-.142,1.59,1.5,4.729,1.766,6.444.115.758-.5,1.34-.246,2.243.322,1.122,1.909,1.706,2.231,2.8,1.367,4.647-6.343,1.929-8.555,6.121-2.3-.4-5.134-1.353-7.368-.732C23.558,33.447,26.271,33.371,28.8,34c1.48.367,5.419,1.153,2.179,2.458a7.65,7.65,0,0,0,3.3,2.19,3.785,3.785,0,0,1-4.957,2.444" transform="translate(276.869 97.029)" fill="none" stroke="#f5637e" stroke-miterlimit="10" stroke-width="1.185"/>
    <path id="Path_3872" data-name="Path 3872" d="M45.132,20.638C53.8,20.109,58.9,12.766,66.692,10.077,70.3,8.834,74.166,9.022,77.8,8.054,79.24,7.671,82,7.4,81.416,5.142,80.824,2.851,78.345,4.2,76.9,3.758,75.131,3.22,74.151,1.9,72.437,1.219,70.8.567,69.458,1.486,68.1,0c-4.42,1.407-7.979,3.285-12.761,3.985-5.04.735-9.749,1.338-14.826,2.453a155.46,155.46,0,0,1-27,3.674C9.286,10.3,4.05,11.43,0,9.948" transform="translate(195.713 93.407)" fill="none" stroke="#f5637e" stroke-miterlimit="10" stroke-width="1.185"/>
    <path id="Path_3873" data-name="Path 3873" d="M35.9,4.033c3.944.292,7.058-2.724,10.5-3.721,5.461-1.581,3.381,3.333,7.846,3.97.063.154-.213.458-.143.647,2.126-.583,4.334-1.991,6.418-.567C58.968,5.526,55.383,6.821,56.68,9.2c1.126,2.071,6.736.36,5.251,3.909-.689,1.647-5.721,2.408-7.3,3.161-2.44,1.161-4.681,2.856-7.326,3.56-5.25,1.4-11.528.535-16.932.8A77.706,77.706,0,0,0,15.439,23.2C10.233,24.461,5.179,25.124,0,26.528" transform="translate(196.758 75.414)" fill="none" stroke="#f5637e" stroke-miterlimit="10" stroke-width="1.185"/>
    <path id="Path_3874" data-name="Path 3874" d="M0,6.971C5.734,7.41,9.887,4.121,13.31,0c.051.024.709.205.755.206.2,1.584-1.034,2.825-1.814,4.108,1.448.729,3.215.938,4.411,1.988-1.395.906-2.9,1.113-4.132,2.006.959,1.049,2.425,1.166,3.762,1.675-1.459,1.464-5.39,5.183-7.228,5.315" transform="translate(256.829 78.853)" fill="none" stroke="#f5637e" stroke-miterlimit="10" stroke-width="1.185"/>
    <path id="Path_3875" data-name="Path 3875" d="M0,1.53C3.7-.634,10.15.123,14.371.149a48.839,48.839,0,0,1,13.6,1.7,39.161,39.161,0,0,1,7.886,3.069c-.025.086-.047.171-.069.257-.386.2-.765.533-1.157.73,6.278,5.755-4.787,1.714-7.318,3.752-.155,3.949-6.751,3.24-9.437,3.379A33.832,33.832,0,0,0,7.151,15.96c-2.086.911-3.24,1.566-5.588,1.723" transform="translate(270.37 79.261)" fill="none" stroke="#f5637e" stroke-miterlimit="10" stroke-width="1.185"/>
    <path id="Path_3876" data-name="Path 3876" d="M14.108,23.521c5.418-1.973,9.1-8.837,11.953-13.4.633-1.013,4.322-4.476,2.7-5.163s-5.138,3.908-6.441,4.561c-4.432,2.225-2.5-.734-2.64-3.97-.581.391-1.892.6-2.465,1.013C17.248,5.345,19.7.238,17.651,0c-.882-.1-1.556,2.376-2.328,2.739-1.091.51-2.144-.3-2.814-.026C9.12,4.072,4.667,8.3,2.422,11.4A12.055,12.055,0,0,0,0,15.685" transform="translate(203.692 41.368)" fill="none" stroke="#f5637e" stroke-miterlimit="10" stroke-width="1.185"/>
    <path id="Path_3877" data-name="Path 3877" d="M25.225,22.627c.033-1.943,1.721-3.712,2.392-5.695.609-1.8.445-3.644.685-5.513C28.928,6.492,31.832,4.082,33.284,0c-1.9.407-9.248,7.128-8.715,3.115-2.048.763-3.947,3.139-6.067,4.265A32.026,32.026,0,0,0,11.786,11.6c-4.09,3.707-5.96,9-8.759,13.579A54.669,54.669,0,0,0,0,31.023" transform="translate(184.493 25.901)" fill="none" stroke="#f5637e" stroke-miterlimit="10" stroke-width="1.185"/>
    <path id="Path_3878" data-name="Path 3878" d="M4.686,25.875c3.692-2.18,4.575-7.833,6.348-11.489,1.865-3.843,6.057-5.121,8.213-8.529,1.062-1.672.965-3.875,1.334-5.812-2.03-.373-2.691,1.689-4.486,2.32-2.018.707-3.516.04-5.589,1.128C7.106,5.28,4.629,9.44,2.8,12.678A41.191,41.191,0,0,1,0,17.721" transform="translate(186.777 38.521)" fill="none" stroke="#f5637e" stroke-miterlimit="10" stroke-width="1.185"/>
    <path id="Path_3879" data-name="Path 3879" d="M9.2,11.222C10.444,7.526,12.6,3.936,13.038,0c-1.253,1.2-2.063,4.723-3.674,5.363C6.9,6.348,8.313,2.766,7.94.791c-1.234.956-1.708,3.057-2.891,4.3C3.821,4.176,4.068,2.588,4.216,1.1c-2.2,1-3.059,3-4.216,4.84" transform="translate(221.428 35.716)" fill="none" stroke="#f5637e" stroke-miterlimit="10" stroke-width="1.185"/>
    <path id="Path_3880" data-name="Path 3880" d="M0,25.427c3.054-2.283,8.271-4.681,10.584-7.709-1.346-.481-4.817.153-5.238-1.735-.486-2.172,2.818-1.87,4.084-2.894,1.121-.906,2.1-2.637,3.364-3.824,1.009-.95,3.618-2.883,4.056-4.181,1.008-3-2.316-2.213-1.346-5.084C11.8,1.575,4.029,3.473,1.383,6.557" transform="translate(228.491 44.885)" fill="none" stroke="#f5637e" stroke-miterlimit="10" stroke-width="1.185"/>
    <path id="Path_3881" data-name="Path 3881" d="M0,28.357c2.823-3.355,5.327-6.511,8.771-9.3,3.307-2.68,7.146-3.125,10.725-5.256,3.438-2.047,6.749-4.841,10.022-7.179C31,5.555,36.34-.857,38.28.1c1.884.924-1.19,2.87.933,4.084,1.645.942,3.665-1.553,5.565-1.106a14.918,14.918,0,0,1-1.1,1.868c1.064-.92,2.341-1.547,3.4-.347A24.652,24.652,0,0,1,37.941,17C32.855,20.282,28.816,25.15,23.5,28.532c-2.419,1.537-5.046,3.362-7.4,4.636" transform="translate(231.567 44.11)" fill="none" stroke="#f5637e" stroke-miterlimit="10" stroke-width="1.185"/>
    <path id="Path_3882" data-name="Path 3882" d="M7.063,4.953c5.522-.4,14.02-7.56,19.65-3.928-1.84,0-4.514.344-6.121,1.659-.958.785-.923,2.177-1.924,2.959-.875.684-1.965.45-2.9,1.042-3.213,2.033-5.185,6.272-8.788,8.695C4.684,16.921,1.874,17.907,0,19.762" transform="translate(257.164 60.126)" fill="none" stroke="#f5637e" stroke-miterlimit="10" stroke-width="1.185"/>
    <path id="Path_3883" data-name="Path 3883" d="M9.429.768C13.47,4.315,18.865-2.014,22.931.7c-1.5,1.309-3.446,1.514-4.8,3.015a11.834,11.834,0,0,1-.111,2.4c-.351.639-2.026-1.262-1.732.993-2.235.728-5.907-.531-8.542-.262-2.142.218-6.3.6-7.746,2" transform="translate(266.322 64.839)" fill="none" stroke="#f5637e" stroke-miterlimit="10" stroke-width="1.185"/>
    <path id="Path_3884" data-name="Path 3884" d="M0,2.6c2.354-.278,5.462.195,7.9-.385C10.713,1.545,13.5-1,16.407.425c-.57.372-.737.788-1.139,1.146,2.836,1.636,7.729,1,2.14,4.118-1.723.959-3.726,1.148-5.451,1.99-2.352,1.147-1.811,1.427-2.943,3.249-.878,1.407-.273,2.738-2.7,2.87" transform="translate(284.785 65.874)" fill="none" stroke="#f5637e" stroke-miterlimit="10" stroke-width="1.185"/>
    <path id="Path_3885" data-name="Path 3885" d="M0,17.592c.541-2.046,6.14-6.383,8.335-7.415a18.842,18.842,0,0,0,8.139-6.283c1.157-1.375,2.717-1.9,3.156-3.845-2.043-.421-2.8,1.977-4.558,2.7-1.812.749-3.786.355-5.724,1.3" transform="translate(236.126 44.47)" fill="none" stroke="#f5637e" stroke-miterlimit="10" stroke-width="1.185"/>
    <path id="Path_3886" data-name="Path 3886" d="M9.553,0c1.166.956,6.933.524,9.429,1.357C22.72,2.6,25.862,5.2,29.527,6.553,33.615,8.063,38.116,8.2,42.241,9.59c4.277,1.445,8.354,3.571,12.507,5.342a34.867,34.867,0,0,1,10.587,7.294c-4.68-2.015-8.057-3.964-13.27-4.777-4.829-.75-7.815-4.133-12.254-5.022-8.723-1.758-18.545-1.463-26.783-4.877C8.736,5.769,3.909,4.931,0,2.353" transform="translate(287.581 89.813)" fill="none" stroke="#f5637e" stroke-miterlimit="10" stroke-width="1.185"/>
    <path id="Path_3887" data-name="Path 3887" d="M0,0" transform="translate(300.402 162.35)" fill="none" stroke="#f5637e" stroke-miterlimit="10" stroke-width="1.185"/>
    <path id="Path_3888" data-name="Path 3888" d="M52.187,0C58.412,3.7,62.71,10.5,64.46,17.474c1.56,6.229-1.778,14.233-4.388,19.942-1.795,3.924-5.152,6.129-8.343,8.826-3.161,2.674-5.176,6.4-8.232,9.039-3.111,2.677-6.324,1.905-10.119,1.364a37.639,37.639,0,0,0-11.2.311c-7.452,1-14.971-6.5-22.182-6.834" transform="translate(301.357 112.37)" fill="none" stroke="#f5637e" stroke-miterlimit="10" stroke-width="1.185"/>
    <path id="Path_3889" data-name="Path 3889" d="M52.807,10.685C47.441,8.3,42.2,5.461,36.568,3.749c-5.356-1.628-11-2.176-16.528-2.916C14.557.1,9.249-.4,3.745.431,2.491.621,1.242.871,0,1.125" transform="translate(283.329 25.438)" fill="none" stroke="#f5637e" stroke-miterlimit="10" stroke-width="1.185"/>
    <path id="Path_3890" data-name="Path 3890" d="M0,31.8a159.559,159.559,0,0,1,18.264-.46c6.264.242,12.552.216,18.806.643,5.354.366,11.853,2.14,17.044.139,5.726-2.209,7.344-8.609,6.985-14.207C60.673,11.267,57.4,5.46,53.853,0" transform="translate(307.879 59.695)" fill="none" stroke="#f5637e" stroke-miterlimit="10" stroke-width="1.185"/>
    <path id="Path_3891" data-name="Path 3891" d="M84.893,55.058c-1.127-4.147.456-9.042-1.313-12.9-1.792-3.9-6-6.2-8.061-10.3C70.4,21.666,64.362,12.3,53.7,7.167c-5.051-2.435-10.63-2.54-15.656-4.96,0-.008.481.206.531.11C34.224,4.488,27.289.311,22.6.04c-5.3-.305-9.938,1.209-15.065,2.3A24.577,24.577,0,0,1,0,2.677" transform="translate(284.131 20.961)" fill="none" stroke="#f5637e" stroke-miterlimit="10" stroke-width="1.185"/>
    <path id="Path_3892" data-name="Path 3892" d="M94.27,39.434c3.062.019,2.886-3.792,4.219-5.8,1.643-2.481,5.293-2.693,2.618-6.073,3.969-2.628,6.806-4.623,7.651-9.412.727-4.121,2.594-7.664.186-11.2-3.7-5.431-6.495-7.695-12.689-6.731C90.6,1.1,86.569-.948,80.933.987c-4.885,1.676-8.594.427-13.2,3.33C62.736,7.468,57,6.21,52.22,9.19c-4.643,2.9-6.758,6.111-12.327,7.73-5.443,1.588-8.992,4.948-13.678,8.006-4.65,3.03-8.588,7.264-13.284,10.087C8.884,37.446,4.237,36.561,0,38.5" transform="translate(175.623 5.049)" fill="none" stroke="#f5637e" stroke-miterlimit="10" stroke-width="1.185"/>
    <path id="Path_3893" data-name="Path 3893" d="M118.117,7.505C110.086,1.524,104.536-.76,94.507.219c-9.334.91-18.364,2.272-27.639,3.479-8.689,1.128-18.654,6.587-25.419,12.144A150.913,150.913,0,0,0,20.8,36.138,38.667,38.667,0,0,1,8.9,46.013c-3.748,2-9.358,3.632-8.87,8.762a10.185,10.185,0,0,0,.788,2.648" transform="translate(162.583 0)" fill="none" stroke="#f5637e" stroke-miterlimit="10" stroke-width="1.185"/>
    <path id="Path_3894" data-name="Path 3894" d="M12.118.112C7.8-.569,9.872,1.981,7.869,4.381c-1.262,1.514-2.336.588-3.731,1.426C2.186,6.981,3.093,7.184,2.344,8.555c-.492.9.731,2.923-2.147,2.019-.57,1.765.172,3.558,1.24,5.072" transform="translate(172.385 89.691)" fill="none" stroke="#f5637e" stroke-miterlimit="10" stroke-width="1.185"/>
    <path id="Path_3895" data-name="Path 3895" d="M38.72,0c-2.81,2.061-4.961,4.136-7.9,5.822-3.215,1.847-3.317,5.759-6.525,7.592-4.858,2.772-4.563-2.061-7.708-2.57-2.262-.368-5.946,4.213-8.621,4.5C3.63,15.8,2.562,12.882,0,10.326" transform="translate(177.092 152.749)" fill="none" stroke="#f5637e" stroke-miterlimit="10" stroke-width="1.185"/>
  </g>
</svg>
